<svg width="90" height="40" viewBox="0 0 90 40" fill="none" xmlns="http://www.w3.org/2000/svg">
<path d="M17.168 33.5156H17.0508H16.9336H16.8164H16.6992H16.582H16.4648H16.3477H16.2305H16.1133H15.9961H15.8789H15.7617H15.6445H15.5273H15.4102H15.293L15.2344 33.457L15.1758 33.3984H15.0586H14.9414H14.8242H14.707H14.5898H14.4727H14.3555L14.2969 33.3398L14.2383 33.2812H14.1211H14.0039L13.9453 33.2227L13.8867 33.1641H13.7695H13.6523L13.5938 33.1055L13.5352 33.0469L13.4766 32.9883V32.8711V32.7539V32.6367V32.5195V32.4023V32.2852V32.168V32.0508V31.9336V31.8164V31.6992V31.582V31.4648V31.3477V31.2305V31.1133V30.9961V30.8789V30.7617V30.6445V30.5273V30.4102V30.293V30.1758V30.0586V29.9414V29.8242V29.707V29.5898V29.4727V29.3555V29.2383V29.1211V29.0039V28.8867V28.7695V28.6523V28.5352V28.418V28.3008V28.1836V28.0664V27.9492V27.832V27.7148V27.5977V27.4805V27.3633V27.2461V27.1289V27.0117V26.8945V26.7773V26.6602V26.543V26.4258V26.3086V26.1914V26.0742V25.957V25.8398V25.7227V25.6055V25.4883V25.3711V25.2539V25.1367V25.0195V24.9023V24.7852V24.668V24.5508V24.4336V24.3164V24.1992V24.082V23.9648V23.8477V23.7305V23.6133V23.4961V23.3789V23.2617V23.1445V23.0273V22.9102V22.793V22.6758V22.5586V22.4414V22.3242V22.207V22.0898V21.9727V21.8555V21.7383V21.6211V21.5039V21.3867V21.2695V21.1523V21.0352V20.918V20.8008V20.6836V20.5664V20.4492V20.332V20.2148V20.0977V19.9805V19.8633V19.7461V19.6289V19.5117V19.3945V19.2773V19.1602V19.043V18.9258V18.8086V18.6914V18.5742V18.457V18.3398V18.2227V18.1055V17.9883V17.8711V17.7539V17.6367V17.5195V17.4023V17.2852V17.168V17.0508V16.9336V16.8164V16.6992V16.582V16.4648V16.3477V16.2305V16.1133V15.9961V15.8789V15.7617V15.6445V15.5273V15.4102V15.293V15.1758V15.0586V14.9414V14.8242V14.707V14.5898V14.4727V14.3555V14.2383V14.1211V14.0039V13.8867V13.7695V13.6523V13.5352V13.418V13.3008V13.1836V13.0664V12.9492V12.832V12.7148V12.5977V12.4805V12.3633V12.2461V12.1289V12.0117V11.8945V11.7773V11.6602V11.543V11.4258V11.3086V11.1914V11.0742V10.957V10.8398V10.7227V10.6055V10.4883V10.3711V10.2539V10.1367V10.0195V9.90234V9.78516V9.66797V9.55078V9.43359V9.31641V9.19922V9.08203V8.96484V8.84766V8.73047V8.61328V8.49609V8.37891V8.26172V8.14453V8.02734V7.91016V7.79297V7.67578V7.55859V7.44141V7.32422V7.20703V7.08984V6.97266V6.85547V6.73828V6.62109V6.50391V6.38672V6.26953V6.15234V6.03516V5.91797V5.80078V5.68359V5.56641V5.44922V5.33203V5.21484V5.09766V4.98047V4.86328V4.74609V4.62891V4.51172V4.39453V4.27734V4.16016V4.04297V3.92578V3.80859V3.69141V3.57422V3.45703V3.33984V3.22266V3.10547V2.98828V2.87109V2.75391V2.63672V2.51953V2.40234V2.28516V2.16797V2.05078V1.93359V1.81641V1.69922V1.58203V1.46484V1.34766V1.23047V1.11328V0.996094V0.878906V0.761719V0.644531V0.527344V0.410156V0.292969V0.175781L13.5352 0.117188L13.5938 0.0585938L13.6523 0H13.7695H13.8867H14.0039H14.1211H14.2383H14.3555H14.4727H14.5898H14.707H14.8242H14.9414H15.0586H15.1758H15.293H15.4102H15.5273H15.6445H15.7617H15.8789H15.9961H16.1133H16.2305H16.3477H16.4648H16.582H16.6992H16.8164H16.9336H17.0508H17.168H17.2852H17.4023H17.5195H17.6367H17.7539H17.8711H17.9883H18.1055H18.2227H18.3398H18.457H18.5742H18.6914H18.8086H18.9258H19.043H19.1602H19.2773H19.3945H19.5117H19.6289H19.7461H19.8633H19.9805H20.0977H20.2148H20.332H20.4492H20.5664H20.6836H20.8008H20.918L20.9766 0.0585938L21.0352 0.117188L21.0938 0.175781V0.292969V0.410156V0.527344V0.644531V0.761719V0.878906V0.996094V1.11328V1.23047V1.34766V1.46484V1.58203V1.69922V1.81641V1.93359V2.05078V2.16797V2.28516V2.40234V2.51953V2.63672V2.75391V2.87109V2.98828V3.10547V3.22266V3.33984V3.45703V3.57422V3.69141V3.80859V3.92578V4.04297V4.16016V4.27734V4.39453V4.51172V4.62891V4.74609V4.86328V4.98047V5.09766V5.21484V5.33203V5.44922V5.56641V5.68359V5.80078V5.91797V6.03516V6.15234V6.26953V6.38672V6.50391V6.62109V6.73828V6.85547V6.97266V7.08984V7.20703V7.32422V7.44141V7.55859V7.67578V7.79297V7.91016V8.02734V8.14453V8.26172V8.37891V8.49609V8.61328V8.73047V8.84766V8.96484V9.08203V9.19922V9.31641V9.43359V9.55078V9.66797V9.78516V9.90234V10.0195V10.1367V10.2539V10.3711V10.4883V10.6055V10.7227V10.8398V10.957V11.0742V11.1914V11.3086V11.4258V11.543V11.6602V11.7773V11.8945V12.0117V12.1289V12.2461V12.3633V12.4805V12.5977V12.7148V12.832V12.9492V13.0664V13.1836V13.3008V13.418V13.5352V13.6523V13.7695V13.8867V14.0039V14.1211V14.2383V14.3555V14.4727V14.5898V14.707V14.8242V14.9414V15.0586V15.1758V15.293V15.4102V15.5273V15.6445V15.7617V15.8789V15.9961V16.1133V16.2305V16.3477V16.4648V16.582V16.6992V16.8164V16.9336V17.0508V17.168V17.2852V17.4023V17.5195V17.6367V17.7539V17.8711V17.9883V18.1055V18.2227V18.3398V18.457V18.5742V18.6914V18.8086V18.9258V19.043V19.1602V19.2773V19.3945V19.5117V19.6289V19.7461V19.8633V19.9805V20.0977V20.2148V20.332V20.4492V20.5664V20.6836V20.8008V20.918V21.0352V21.1523V21.2695V21.3867V21.5039V21.6211V21.7383V21.8555V21.9727V22.0898V22.207V22.3242V22.4414V22.5586V22.6758V22.793V22.9102V23.0273V23.1445V23.2617V23.3789V23.4961V23.6133V23.7305V23.8477V23.9648V24.082V24.1992V24.3164V24.4336V24.5508V24.668V24.7852V24.9023V25.0195V25.1367V25.2539V25.3711V25.4883V25.6055V25.7227V25.8398V25.957V26.0742V26.1914V26.3086V26.4258V26.543V26.6602V26.7773V26.8945V27.0117V27.1289V27.2461V27.3633V27.4805V27.5977V27.7148V27.832V27.9492V28.0664V28.1836V28.3008V28.418V28.5352V28.6523V28.7695V28.8867V29.0039V29.1211V29.2383V29.3555V29.4727V29.5898V29.707V29.8242V29.9414V30.0586V30.1758V30.293V30.4102V30.5273V30.6445V30.7617V30.8789V30.9961V31.1133V31.2305V31.3477V31.4648V31.582V31.6992V31.8164V31.9336V32.0508V32.168V32.2852V32.4023V32.5195V32.6367V32.7539V32.8711V32.9883L21.0352 33.0469H20.918H20.8008L20.7422 33.1055L20.6836 33.1641H20.5664H20.4492H20.332H20.2148H20.0977H19.9805H19.8633L19.8047 33.2227L19.7461 33.2812H19.6289H19.5117H19.3945H19.2773H19.1602H19.043H18.9258H18.8086L18.75 33.3398L18.6914 33.3984H18.5742H18.457H18.3398H18.2227H18.1055H17.9883H17.8711H17.7539H17.6367H17.5195H17.4023H17.2852L17.2266 33.457L17.168 33.5156Z" fill="white"/>
<path d="M48.3398 5.03906H48.2227H48.1055H47.9883H47.8711H47.7539H47.6367H47.5195H47.4023H47.2852H47.168H47.0508H46.9336H46.8164H46.6992H46.582H46.4648H46.3477H46.2305H46.1133H45.9961H45.8789H45.7617H45.6445H45.5273H45.4102H45.293H45.1758H45.0586H44.9414H44.8242H44.707H44.5898H44.4727H44.3555H44.2383H44.1211H44.0039H43.8867H43.7695H43.6523H43.5352H43.418H43.3008H43.1836H43.0664H42.9492H42.832H42.7148H42.5977H42.4805H42.3633H42.2461H42.1289H42.0117H41.8945H41.7773H41.6602H41.543H41.4258H41.3086H41.1914H41.0742H40.957H40.8398H40.7227H40.6055H40.4883H40.3711H40.2539H40.1367H40.0195H39.9023H39.7852H39.668H39.5508H39.4336H39.3164H39.1992H39.082H38.9648H38.8477H38.7305H38.6133H38.4961H38.3789H38.2617H38.1445H38.0273H37.9102H37.793H37.6758H37.5586H37.4414H37.3242H37.207H37.0898H36.9727H36.8555H36.7383H36.6211H36.5039H36.3867H36.2695H36.1523H36.0352H35.918H35.8008H35.6836H35.5664H35.4492H35.332H35.2148H35.0977H34.9805H34.8633H34.7461H34.6289H34.5117H34.3945H34.2773H34.1602H34.043H33.9258H33.8086H33.6914H33.5742H33.457H33.3398H33.2227H33.1055H32.9883H32.8711H32.7539H32.6367H32.5195H32.4023H32.2852H32.168H32.0508H31.9336H31.8164H31.6992H31.582H31.4648H31.3477H31.2305H31.1133H30.9961H30.8789H30.7617H30.6445H30.5273H30.4102H30.293H30.1758H30.0586H29.9414H29.8242H29.707H29.5898H29.4727H29.3555H29.2383H29.1211H29.0039H28.8867H28.7695H28.6523H28.5352H28.418H28.3008H28.1836H28.0664H27.9492H27.832H27.7148H27.5977H27.4805H27.3633H27.2461H27.1289H27.0117L26.9531 4.98047V4.86328V4.74609V4.62891V4.51172V4.39453V4.27734V4.16016V4.04297V3.92578V3.80859V3.69141V3.57422V3.45703V3.33984V3.22266V3.10547V2.98828V2.87109V2.75391V2.63672V2.51953V2.40234V2.28516V2.16797V2.05078V1.93359V1.81641V1.69922V1.58203V1.46484V1.34766V1.23047V1.11328V0.996094V0.878906V0.761719V0.644531V0.527344V0.410156V0.292969V0.175781L27.0117 0.117188L27.0703 0.0585938L27.1289 0H27.2461H27.3633H27.4805H27.5977H27.7148H27.832H27.9492H28.0664H28.1836H28.3008H28.418H28.5352H28.6523H28.7695H28.8867H29.0039H29.1211H29.2383H29.3555H29.4727H29.5898H29.707H29.8242H29.9414H30.0586H30.1758H30.293H30.4102H30.5273H30.6445H30.7617H30.8789H30.9961H31.1133H31.2305H31.3477H31.4648H31.582H31.6992H31.8164H31.9336H32.0508H32.168H32.2852H32.4023H32.5195H32.6367H32.7539H32.8711H32.9883H33.1055H33.2227H33.3398H33.457H33.5742H33.6914H33.8086H33.9258H34.043H34.1602H34.2773H34.3945H34.5117H34.6289H34.7461H34.8633H34.9805H35.0977H35.2148H35.332H35.4492H35.5664H35.6836H35.8008H35.918H36.0352H36.1523H36.2695H36.3867H36.5039H36.6211H36.7383H36.8555H36.9727H37.0898H37.207H37.3242H37.4414H37.5586H37.6758H37.793H37.9102H38.0273H38.1445H38.2617H38.3789H38.4961H38.6133H38.7305H38.8477H38.9648H39.082H39.1992H39.3164H39.4336H39.5508H39.668H39.7852H39.9023H40.0195H40.1367H40.2539H40.3711H40.4883H40.6055H40.7227H40.8398H40.957H41.0742H41.1914H41.3086H41.4258H41.543H41.6602H41.7773H41.8945H42.0117H42.1289H42.2461H42.3633H42.4805H42.5977H42.7148H42.832H42.9492H43.0664H43.1836H43.3008H43.418H43.5352H43.6523H43.7695H43.8867H44.0039H44.1211H44.2383H44.3555H44.4727H44.5898H44.707H44.8242H44.9414H45.0586H45.1758H45.293H45.4102H45.5273H45.6445H45.7617H45.8789H45.9961H46.1133H46.2305H46.3477H46.4648H46.582H46.6992H46.8164H46.9336H47.0508H47.168H47.2852H47.4023H47.5195H47.6367H47.7539H47.8711H47.9883H48.1055H48.2227H48.3398H48.457H48.5742H48.6914H48.8086H48.9258H49.043H49.1602H49.2773H49.3945H49.5117H49.6289H49.7461H49.8633H49.9805H50.0977H50.2148H50.332H50.4492H50.5664H50.6836H50.8008H50.918H51.0352H51.1523H51.2695H51.3867H51.5039H51.6211H51.7383H51.8555H51.9727H52.0898H52.207H52.3242H52.4414H52.5586H52.6758H52.793H52.9102H53.0273H53.1445H53.2617H53.3789H53.4961H53.6133H53.7305H53.8477H53.9648H54.082H54.1992L54.2578 0.0585938V0.175781L54.1992 0.234375L54.1406 0.292969L54.082 0.351562H53.9648L53.9062 0.410156L53.8477 0.46875H53.7305L53.6719 0.527344L53.6133 0.585938H53.4961L53.4375 0.644531L53.3789 0.703125H53.2617L53.2031 0.761719L53.1445 0.820312H53.0273L52.9688 0.878906L52.9102 0.9375H52.793L52.7344 0.996094L52.6758 1.05469H52.5586L52.5 1.11328L52.4414 1.17188H52.3242L52.2656 1.23047L52.207 1.28906L52.1484 1.34766L52.0898 1.40625H51.9727L51.9141 1.46484L51.8555 1.52344L51.7969 1.58203L51.7383 1.64062H51.6211L51.5625 1.69922L51.5039 1.75781L51.4453 1.81641L51.3867 1.875H51.2695L51.2109 1.93359L51.1523 1.99219L51.0938 2.05078L51.0352 2.10938L50.9766 2.16797L50.918 2.22656H50.8008L50.7422 2.28516L50.6836 2.34375L50.625 2.40234L50.5664 2.46094L50.5078 2.51953L50.4492 2.57812L50.3906 2.63672L50.332 2.69531L50.2734 2.75391L50.2148 2.8125L50.1562 2.87109L50.0977 2.92969L50.0391 2.98828L49.9805 3.04688L49.9219 3.10547L49.8633 3.16406L49.8047 3.22266L49.7461 3.28125L49.6875 3.33984L49.6289 3.39844L49.5703 3.45703L49.5117 3.51562L49.4531 3.57422L49.3945 3.63281L49.3359 3.69141L49.2773 3.75L49.2188 3.80859L49.1602 3.86719L49.1016 3.92578L49.043 3.98438L48.9844 4.04297V4.16016L48.9258 4.21875L48.8672 4.27734L48.8086 4.33594L48.75 4.39453L48.6914 4.45312L48.6328 4.51172V4.62891L48.5742 4.6875L48.5156 4.74609L48.457 4.80469L48.3984 4.86328V4.98047L48.3398 5.03906Z" fill="white"/>
<path d="M65.6836 17.8125H65.5664H65.4492H65.332H65.2148L65.1562 17.7539L65.0977 17.6953H64.9805H64.8633H64.7461H64.6289H64.5117L64.4531 17.6367L64.3945 17.5781H64.2773H64.1602H64.043H63.9258H63.8086H63.6914H63.5742H63.457L63.3984 17.5195L63.3398 17.4609H63.2227H63.1055H62.9883H62.8711H62.7539H62.6367H62.5195H62.4023H62.2852H62.168H62.0508H61.9336H61.8164H61.6992H61.582H61.4648H61.3477H61.2305H61.1133L61.0547 17.4023L60.9961 17.3438H60.8789H60.7617H60.6445H60.5273H60.4102H60.293H60.1758H60.0586H59.9414L59.8828 17.2852L59.8242 17.2266H59.707H59.5898H59.4727H59.3555H59.2383H59.1211L59.0625 17.168L59.0039 17.1094H58.8867H58.7695H58.6523H58.5352L58.4766 17.0508L58.418 16.9922H58.3008H58.1836H58.0664L58.0078 16.9336L57.9492 16.875H57.832H57.7148H57.5977L57.5391 16.8164L57.4805 16.7578H57.3633H57.2461H57.1289L57.0703 16.6992L57.0117 16.6406H56.8945H56.7773L56.7188 16.582L56.6602 16.5234H56.543H56.4258L56.3672 16.4648L56.3086 16.4062H56.1914H56.0742L56.0156 16.3477L55.957 16.2891H55.8398H55.7227L55.6641 16.2305L55.6055 16.1719H55.4883L55.4297 16.1133L55.3711 16.0547H55.2539H55.1367L55.0781 15.9961L55.0195 15.9375H54.9023L54.8438 15.8789L54.7852 15.8203H54.668L54.6094 15.7617L54.5508 15.7031H54.4336L54.375 15.6445L54.3164 15.5859H54.1992L54.1406 15.5273L54.082 15.4688H53.9648L53.9062 15.4102L53.8477 15.3516L53.7891 15.293L53.7305 15.2344H53.6133L53.5547 15.1758L53.4961 15.1172H53.3789L53.3203 15.0586L53.2617 15L53.2031 14.9414L53.1445 14.8828H53.0273L52.9688 14.8242L52.9102 14.7656H52.793L52.7344 14.707L52.6758 14.6484L52.6172 14.5898L52.5586 14.5312L52.5 14.4727L52.4414 14.4141L52.3828 14.3555L52.3242 14.2969H52.207L52.1484 14.2383L52.0898 14.1797L52.0312 14.1211L51.9727 14.0625L51.9141 14.0039L51.8555 13.9453L51.7969 13.8867L51.7383 13.8281L51.6797 13.7695L51.6211 13.7109L51.5625 13.6523L51.5039 13.5938L51.4453 13.5352L51.3867 13.4766L51.3281 13.418L51.2695 13.3594L51.2109 13.3008L51.1523 13.2422L51.0938 13.1836L51.0352 13.125L50.9766 13.0664L50.918 13.0078L50.8594 12.9492V12.832L50.8008 12.7734L50.7422 12.7148L50.6836 12.6562L50.625 12.5977L50.5664 12.5391L50.5078 12.4805V12.3633L50.4492 12.3047L50.3906 12.2461L50.332 12.1875L50.2734 12.1289V12.0117L50.2148 11.9531L50.1562 11.8945V11.7773L50.0977 11.7188L50.0391 11.6602L49.9805 11.6016L49.9219 11.543V11.4258V11.3086L49.8633 11.25L49.8047 11.1914V11.0742L49.7461 11.0156L49.6875 10.957V10.8398L49.6289 10.7812L49.5703 10.7227V10.6055V10.4883L49.5117 10.4297L49.4531 10.3711V10.2539V10.1367V10.0195L49.3945 9.96094L49.3359 9.90234V9.78516V9.66797V9.55078V9.43359V9.31641V9.19922V9.08203L49.2773 9.02344L49.2188 8.96484V8.84766V8.73047V8.61328V8.49609L49.2773 8.4375L49.3359 8.37891V8.26172V8.14453V8.02734V7.91016V7.79297V7.67578V7.55859L49.3945 7.5L49.4531 7.44141V7.32422V7.20703V7.08984L49.5117 7.03125L49.5703 6.97266V6.85547V6.73828L49.6289 6.67969L49.6875 6.62109V6.50391L49.7461 6.44531L49.8047 6.38672V6.26953V6.15234L49.8633 6.09375L49.9219 6.03516V5.91797L49.9805 5.85938L50.0391 5.80078V5.68359L50.0977 5.625L50.1562 5.56641V5.44922L50.2148 5.39062L50.2734 5.33203L50.332 5.27344L50.3906 5.21484V5.09766L50.4492 5.03906L50.5078 4.98047L50.5664 4.92188L50.625 4.86328L50.6836 4.80469L50.7422 4.74609V4.62891L50.8008 4.57031L50.8594 4.51172L50.918 4.45312L50.9766 4.39453L51.0352 4.33594L51.0938 4.27734L51.1523 4.21875L51.2109 4.16016L51.2695 4.10156L51.3281 4.04297L51.3867 3.98438L51.4453 3.92578L51.5039 3.86719L51.5625 3.80859L51.6211 3.75L51.6797 3.69141L51.7383 3.63281L51.7969 3.57422L51.8555 3.51562L51.9141 3.45703L51.9727 3.39844L52.0312 3.33984L52.0898 3.28125L52.1484 3.22266L52.207 3.16406H52.3242L52.3828 3.10547L52.4414 3.04688L52.5 2.98828L52.5586 2.92969L52.6172 2.87109L52.6758 2.8125H52.793L52.8516 2.75391L52.9102 2.69531L52.9688 2.63672L53.0273 2.57812L53.0859 2.51953L53.1445 2.46094H53.2617L53.3203 2.40234L53.3789 2.34375H53.4961L53.5547 2.28516L53.6133 2.22656L53.6719 2.16797L53.7305 2.10938H53.8477L53.9062 2.05078L53.9648 1.99219H54.082L54.1406 1.93359L54.1992 1.875H54.3164L54.375 1.81641L54.4336 1.75781H54.5508L54.6094 1.69922L54.668 1.64062H54.7852L54.8438 1.58203L54.9023 1.52344H55.0195L55.0781 1.46484L55.1367 1.40625H55.2539L55.3125 1.34766L55.3711 1.28906H55.4883H55.6055L55.6641 1.23047L55.7227 1.17188H55.8398L55.8984 1.11328L55.957 1.05469H56.0742H56.1914L56.25 0.996094L56.3086 0.9375H56.4258H56.543L56.6016 0.878906L56.6602 0.820312H56.7773H56.8945H57.0117L57.0703 0.761719L57.1289 0.703125H57.2461H57.3633L57.4219 0.644531L57.4805 0.585938H57.5977H57.7148H57.832L57.8906 0.527344L57.9492 0.46875H58.0664H58.1836H58.3008H58.418L58.4766 0.410156L58.5352 0.351562H58.6523H58.7695H58.8867H59.0039L59.0625 0.292969L59.1211 0.234375H59.2383H59.3555H59.4727H59.5898H59.707L59.7656 0.175781L59.8242 0.117188H59.9414H60.0586H60.1758H60.293H60.4102H60.5273H60.6445H60.7617L60.8203 0.0585938L60.8789 0H60.9961H61.1133H61.2305H61.3477H61.4648H61.582H61.6992H61.8164H61.9336H62.0508H62.168H62.2852H62.4023H62.5195H62.6367H62.7539H62.8711H62.9883H63.1055H63.2227H63.3398H63.457H63.5742L63.6328 0.0585938L63.6914 0.117188H63.8086H63.9258H64.043H64.1602H64.2773H64.3945H64.5117H64.6289H64.7461L64.8047 0.175781L64.8633 0.234375H64.9805H65.0977H65.2148H65.332H65.4492L65.5078 0.292969L65.5664 0.351562H65.6836H65.8008H65.918H66.0352H66.1523L66.2109 0.410156L66.2695 0.46875H66.3867H66.5039H66.6211L66.6797 0.527344L66.7383 0.585938H66.8555H66.9727H67.0898L67.1484 0.644531L67.207 0.703125H67.3242H67.4414L67.5 0.761719L67.5586 0.820312H67.6758H67.793L67.8516 0.878906L67.9102 0.9375H68.0273H68.1445L68.2031 0.996094L68.2617 1.05469H68.3789H68.4961L68.5547 1.11328L68.6133 1.17188H68.7305H68.8477L68.9062 1.23047L68.9648 1.28906H69.082L69.1406 1.34766L69.1992 1.40625H69.3164H69.4336L69.4922 1.46484L69.5508 1.52344H69.668L69.7266 1.58203L69.7852 1.64062H69.9023L69.9609 1.69922L70.0195 1.75781H70.1367L70.1953 1.81641L70.2539 1.875H70.3711L70.4297 1.93359L70.4883 1.99219H70.6055L70.6641 2.05078L70.7227 2.10938H70.8398L70.8984 2.16797L70.957 2.22656L71.0156 2.28516L71.0742 2.34375H71.1914L71.25 2.40234L71.3086 2.46094L71.3672 2.51953L71.4258 2.57812H71.543L71.6016 2.63672L71.6602 2.69531L71.7188 2.75391L71.7773 2.8125H71.8945L71.9531 2.87109L72.0117 2.92969L72.0703 2.98828L72.1289 3.04688L72.1875 3.10547L72.2461 3.16406L72.3047 3.22266L72.3633 3.28125H72.4805L72.5391 3.33984L72.5977 3.39844L72.6562 3.45703L72.7148 3.51562L72.7734 3.57422L72.832 3.63281L72.8906 3.69141L72.9492 3.75L73.0078 3.80859L73.0664 3.86719L73.125 3.92578L73.1836 3.98438L73.2422 4.04297L73.3008 4.10156L73.3594 4.16016L73.418 4.21875L73.4766 4.27734L73.5352 4.33594L73.5938 4.39453L73.6523 4.45312L73.7109 4.51172V4.62891L73.7695 4.6875L73.8281 4.74609L73.8867 4.80469L73.9453 4.86328L74.0039 4.92188L74.0625 4.98047V5.09766L74.1211 5.15625L74.1797 5.21484L74.2383 5.27344L74.2969 5.33203V5.44922L74.3555 5.50781L74.4141 5.56641V5.68359L74.4727 5.74219L74.5312 5.80078V5.91797L74.5898 5.97656L74.6484 6.03516L74.707 6.09375L74.7656 6.15234V6.26953V6.38672L74.8242 6.44531L74.8828 6.50391V6.62109L74.9414 6.67969L75 6.73828V6.85547V6.97266L75.0586 7.03125L75.1172 7.08984V7.20703V7.32422V7.44141L75.1758 7.5L75.2344 7.55859V7.67578V7.79297V7.91016V8.02734V8.14453L75.293 8.20312L75.3516 8.26172V8.37891V8.49609V8.61328V8.73047V8.84766V8.96484V9.08203L75.293 9.14062L75.2344 9.19922V9.31641V9.43359V9.55078V9.66797V9.78516L75.1758 9.84375L75.1172 9.90234V10.0195V10.1367V10.2539V10.3711L75.0586 10.4297L75 10.4883V10.6055V10.7227L74.9414 10.7812L74.8828 10.8398V10.957L74.8242 11.0156L74.7656 11.0742V11.1914L74.707 11.25L74.6484 11.3086V11.4258V11.543L74.5898 11.6016L74.5312 11.6602V11.7773L74.4727 11.8359L74.4141 11.8945L74.3555 11.9531L74.2969 12.0117V12.1289L74.2383 12.1875L74.1797 12.2461L74.1211 12.3047L74.0625 12.3633V12.4805L74.0039 12.5391H73.8867H73.7695H73.6523L73.5938 12.4805L73.5352 12.4219H73.418L73.3594 12.3633L73.3008 12.3047H73.1836H73.0664L73.0078 12.2461L72.9492 12.1875H72.832L72.7734 12.1289L72.7148 12.0703H72.5977H72.4805L72.4219 12.0117L72.3633 11.9531H72.2461H72.1289L72.0703 11.8945L72.0117 11.8359H71.8945H71.7773L71.7188 11.7773L71.6602 11.7188H71.543H71.4258L71.3672 11.6602L71.3086 11.6016H71.1914H71.0742L71.0156 11.543L70.957 11.4844H70.8398H70.7227L70.6641 11.4258L70.6055 11.3672H70.4883H70.3711H70.2539L70.1953 11.3086L70.1367 11.25H70.0195H69.9023H69.7852L69.7266 11.1914L69.668 11.1328H69.5508H69.4336H69.3164L69.2578 11.0742L69.1992 11.0156H69.082H68.9648H68.8477L68.7891 10.957L68.7305 10.8984H68.6133H68.4961H68.3789H68.2617L68.2031 10.8398L68.1445 10.7812H68.0273H67.9102H67.793H67.6758H67.5586L67.5 10.7227L67.4414 10.6641H67.3242H67.207L67.1484 10.6055L67.0898 10.5469L67.0312 10.4883L67.0898 10.4297L67.1484 10.3711L67.207 10.3125L67.2656 10.2539V10.1367L67.3242 10.0781L67.3828 10.0195L67.4414 9.96094L67.5 9.90234V9.78516L67.5586 9.72656L67.6172 9.66797V9.55078V9.43359L67.6758 9.375L67.7344 9.31641V9.19922V9.08203V8.96484V8.84766V8.73047V8.61328V8.49609V8.37891V8.26172V8.14453L67.6758 8.08594L67.6172 8.02734V7.91016V7.79297L67.5586 7.73438L67.5 7.67578V7.55859L67.4414 7.5L67.3828 7.44141V7.32422L67.3242 7.26562L67.2656 7.20703L67.207 7.14844L67.1484 7.08984L67.0898 7.03125L67.0312 6.97266L66.9727 6.91406L66.9141 6.85547V6.73828L66.8555 6.67969L66.7969 6.62109L66.7383 6.5625H66.6211L66.5625 6.50391L66.5039 6.44531L66.4453 6.38672L66.3867 6.32812L66.3281 6.26953L66.2695 6.21094H66.1523L66.0938 6.15234L66.0352 6.09375L65.9766 6.03516L65.918 5.97656H65.8008L65.7422 5.91797L65.6836 5.85938H65.5664L65.5078 5.80078L65.4492 5.74219H65.332L65.2734 5.68359L65.2148 5.625H65.0977H64.9805L64.9219 5.56641L64.8633 5.50781H64.7461L64.6875 5.44922L64.6289 5.39062H64.5117H64.3945H64.2773L64.2188 5.33203L64.1602 5.27344H64.043H63.9258H63.8086L63.75 5.21484L63.6914 5.15625H63.5742H63.457H63.3398H63.2227H63.1055H62.9883H62.8711H62.7539H62.6367H62.5195L62.4609 5.09766L62.4023 5.03906H62.2852H62.168H62.0508H61.9336H61.8164L61.7578 5.09766L61.6992 5.15625H61.582H61.4648H61.3477H61.2305H61.1133H60.9961H60.8789L60.8203 5.21484L60.7617 5.27344H60.6445H60.5273H60.4102L60.3516 5.33203L60.293 5.39062H60.1758H60.0586H59.9414L59.8828 5.44922L59.8242 5.50781H59.707H59.5898L59.5312 5.56641L59.4727 5.625H59.3555L59.2969 5.68359L59.2383 5.74219H59.1211L59.0625 5.80078L59.0039 5.85938H58.8867L58.8281 5.91797L58.7695 5.97656H58.6523L58.5938 6.03516L58.5352 6.09375H58.418L58.3594 6.15234L58.3008 6.21094L58.2422 6.26953L58.1836 6.32812L58.125 6.38672L58.0664 6.44531H57.9492L57.8906 6.50391L57.832 6.5625L57.7734 6.62109L57.7148 6.67969L57.6562 6.73828L57.5977 6.79688L57.5391 6.85547V6.97266L57.4805 7.03125L57.4219 7.08984L57.3633 7.14844L57.3047 7.20703L57.2461 7.26562L57.1875 7.32422V7.44141L57.1289 7.5L57.0703 7.55859V7.67578L57.0117 7.73438L56.9531 7.79297V7.91016V8.02734L56.8945 8.08594L56.8359 8.14453V8.26172V8.37891V8.49609V8.61328V8.73047V8.84766V8.96484V9.08203V9.19922L56.8945 9.25781L56.9531 9.31641V9.43359V9.55078L57.0117 9.60938L57.0703 9.66797V9.78516V9.90234L57.1289 9.96094L57.1875 10.0195L57.2461 10.0781L57.3047 10.1367V10.2539L57.3633 10.3125L57.4219 10.3711L57.4805 10.4297L57.5391 10.4883L57.5977 10.5469L57.6562 10.6055V10.7227L57.7148 10.7812H57.832L57.8906 10.8398L57.9492 10.8984L58.0078 10.957L58.0664 11.0156L58.125 11.0742L58.1836 11.1328L58.2422 11.1914L58.3008 11.25H58.418L58.4766 11.3086L58.5352 11.3672L58.5938 11.4258L58.6523 11.4844H58.7695L58.8281 11.543L58.8867 11.6016H59.0039L59.0625 11.6602L59.1211 11.7188H59.2383L59.2969 11.7773L59.3555 11.8359H59.4727H59.5898L59.6484 11.8945L59.707 11.9531H59.8242L59.8828 12.0117L59.9414 12.0703H60.0586H60.1758L60.2344 12.1289L60.293 12.1875H60.4102H60.5273H60.6445H60.7617L60.8203 12.2461L60.8789 12.3047H60.9961H61.1133H61.2305H61.3477H61.4648H61.582H61.6992H61.8164H61.9336L61.9922 12.3633L62.0508 12.4219H62.168H62.2852H62.4023H62.5195H62.6367H62.7539H62.8711H62.9883H63.1055H63.2227H63.3398H63.457H63.5742H63.6914H63.8086H63.9258H64.043H64.1602H64.2773L64.3359 12.4805L64.3945 12.5391H64.5117H64.6289H64.7461H64.8633H64.9805H65.0977H65.2148H65.332H65.4492L65.5078 12.5977L65.5664 12.6562H65.6836H65.8008H65.918H66.0352H66.1523H66.2695H66.3867L66.4453 12.7148L66.5039 12.7734H66.6211H66.7383H66.8555H66.9727L67.0312 12.832L67.0898 12.8906H67.207H67.3242H67.4414H67.5586H67.6758L67.7344 12.9492L67.793 13.0078H67.9102H68.0273H68.1445L68.2031 13.0664L68.2617 13.125H68.3789H68.4961H68.6133L68.6719 13.1836L68.7305 13.2422H68.8477H68.9648H69.082L69.1406 13.3008L69.1992 13.3594H69.3164H69.4336L69.4922 13.418L69.5508 13.4766H69.668H69.7852H69.9023L69.9609 13.5352L70.0195 13.5938H70.1367H70.2539L70.3125 13.6523L70.3711 13.7109H70.4883H70.6055L70.6641 13.7695L70.7227 13.8281H70.8398L70.8984 13.8867L70.957 13.9453H71.0742H71.1914L71.25 14.0039L71.3086 14.0625H71.4258H71.543L71.6016 14.1211L71.6602 14.1797H71.7773L71.8359 14.2383L71.7773 14.2969L71.7188 14.3555L71.6602 14.4141L71.6016 14.4727L71.543 14.5312H71.4258L71.3672 14.5898L71.3086 14.6484L71.25 14.707L71.1914 14.7656H71.0742L71.0156 14.8242L70.957 14.8828H70.8398L70.7812 14.9414L70.7227 15L70.6641 15.0586L70.6055 15.1172H70.4883L70.4297 15.1758L70.3711 15.2344H70.2539L70.1953 15.293L70.1367 15.3516L70.0781 15.4102L70.0195 15.4688H69.9023L69.8438 15.5273L69.7852 15.5859H69.668L69.6094 15.6445L69.5508 15.7031H69.4336L69.375 15.7617L69.3164 15.8203L69.2578 15.8789L69.1992 15.9375H69.082L69.0234 15.9961L68.9648 16.0547H68.8477L68.7891 16.1133L68.7305 16.1719H68.6133L68.5547 16.2305L68.4961 16.2891H68.3789L68.3203 16.3477L68.2617 16.4062H68.1445L68.0859 16.4648L68.0273 16.5234L67.9688 16.582L67.9102 16.6406H67.793L67.7344 16.6992L67.6758 16.7578H67.5586L67.5 16.8164L67.4414 16.875H67.3242L67.2656 16.9336L67.207 16.9922H67.0898L67.0312 17.0508L66.9727 17.1094H66.8555L66.7969 17.168L66.7383 17.2266H66.6211L66.5625 17.2852L66.5039 17.3438H66.3867L66.3281 17.4023L66.2695 17.4609H66.1523L66.0938 17.5195L66.0352 17.5781H65.918L65.8594 17.6367L65.8008 17.6953L65.7422 17.7539L65.6836 17.8125Z" fill="white"/>
<path d="M6.62109 39.6094H6.50391H6.38672H6.26953H6.15234H6.03516H5.91797H5.80078H5.68359H5.56641H5.44922H5.33203H5.21484H5.09766H4.98047H4.86328H4.74609H4.62891H4.51172H4.39453H4.27734H4.16016H4.04297H3.92578H3.80859H3.69141L3.63281 39.5508L3.57422 39.4922H3.45703H3.33984H3.22266H3.10547H2.98828H2.87109H2.75391H2.63672L2.57812 39.4336L2.51953 39.375H2.40234H2.28516H2.16797H2.05078L1.99219 39.3164L1.93359 39.2578H1.81641H1.69922L1.64062 39.1992L1.58203 39.1406H1.46484H1.34766L1.28906 39.082L1.23047 39.0234H1.11328L1.05469 38.9648L0.996094 38.9062H0.878906L0.820312 38.8477L0.761719 38.7891L0.703125 38.7305L0.644531 38.6719L0.585938 38.6133L0.527344 38.5547H0.410156L0.351562 38.4961V38.3789L0.292969 38.3203L0.234375 38.2617L0.175781 38.2031L0.117188 38.1445V38.0273V37.9102L0.0585938 37.8516L0 37.793V37.6758V37.5586V37.4414V37.3242V37.207V37.0898L0.0585938 37.0312L0.117188 36.9727V36.8555V36.7383L0.175781 36.6797L0.234375 36.6211V36.5039L0.292969 36.4453L0.351562 36.3867V36.2695L0.410156 36.2109L0.46875 36.1523V36.0352L0.527344 35.9766L0.585938 35.918L0.644531 35.8594L0.703125 35.8008V35.6836L0.761719 35.625L0.820312 35.5664L0.878906 35.5078L0.9375 35.4492L0.996094 35.3906L1.05469 35.332L1.11328 35.2734L1.17188 35.2148V35.0977L1.23047 35.0391L1.28906 34.9805L1.34766 34.9219L1.40625 34.8633L1.46484 34.8047L1.52344 34.7461L1.58203 34.6875L1.64062 34.6289L1.69922 34.5703L1.75781 34.5117L1.81641 34.4531L1.875 34.3945L1.93359 34.3359L1.99219 34.2773L2.05078 34.2188L2.10938 34.1602L2.16797 34.1016L2.22656 34.043L2.28516 33.9844L2.34375 33.9258L2.40234 33.8672L2.46094 33.8086L2.51953 33.75L2.57812 33.6914L2.63672 33.6328L2.69531 33.5742L2.75391 33.5156H2.87109L2.92969 33.457L2.98828 33.3984L3.04688 33.3398L3.10547 33.2812L3.16406 33.2227L3.22266 33.1641L3.28125 33.1055L3.33984 33.0469L3.39844 32.9883L3.45703 32.9297H3.57422L3.63281 32.8711L3.69141 32.8125L3.75 32.7539L3.80859 32.6953L3.86719 32.6367L3.92578 32.5781L3.98438 32.5195L4.04297 32.4609H4.16016L4.21875 32.4023L4.27734 32.3438L4.33594 32.2852L4.39453 32.2266L4.45312 32.168L4.51172 32.1094H4.62891L4.6875 32.0508L4.74609 31.9922L4.80469 31.9336L4.86328 31.875L4.92188 31.8164L4.98047 31.7578H5.09766L5.15625 31.6992L5.21484 31.6406L5.27344 31.582L5.33203 31.5234L5.39062 31.4648L5.44922 31.4062H5.56641L5.625 31.3477L5.68359 31.2891L5.74219 31.2305L5.80078 31.1719H5.91797L5.97656 31.1133L6.03516 31.0547L6.09375 30.9961L6.15234 30.9375H6.26953L6.32812 30.8789L6.38672 30.8203L6.44531 30.7617L6.50391 30.7031H6.62109L6.67969 30.6445L6.73828 30.5859L6.79688 30.5273L6.85547 30.4688H6.97266L7.03125 30.4102L7.08984 30.3516L7.14844 30.293L7.20703 30.2344H7.32422L7.38281 30.1758L7.44141 30.1172L7.5 30.0586L7.55859 30H7.67578L7.73438 29.9414L7.79297 29.8828L7.85156 29.8242L7.91016 29.7656H8.02734L8.08594 29.707L8.14453 29.6484H8.26172L8.32031 29.5898L8.37891 29.5312L8.4375 29.4727L8.49609 29.4141H8.61328L8.67188 29.3555L8.73047 29.2969L8.78906 29.2383L8.84766 29.1797H8.96484L9.02344 29.1211L9.08203 29.0625H9.19922L9.25781 29.0039L9.31641 28.9453L9.375 28.8867L9.43359 28.8281H9.55078L9.60938 28.7695L9.66797 28.7109H9.78516L9.84375 28.6523L9.90234 28.5938H10.0195L10.0781 28.5352L10.1367 28.4766L10.1953 28.418L10.2539 28.3594H10.3711L10.4297 28.3008L10.4883 28.2422H10.6055L10.6641 28.1836L10.7227 28.125L10.7812 28.0664L10.8398 28.0078H10.957L11.0156 27.9492L11.0742 27.8906H11.1914L11.25 27.832L11.3086 27.7734L11.3672 27.7148L11.4258 27.6562H11.543L11.6016 27.5977L11.6602 27.5391H11.7773L11.8359 27.4805L11.8945 27.4219H12.0117L12.0703 27.3633L12.1289 27.3047L12.1875 27.2461L12.2461 27.1875H12.3633L12.4219 27.1289L12.4805 27.0703H12.5977L12.6562 27.0117L12.7148 26.9531H12.832L12.8906 26.8945L12.9492 26.8359H13.0664H13.1836L13.2422 26.8945L13.3008 26.9531L13.3594 27.0117V27.1289V27.2461V27.3633V27.4805V27.5977V27.7148V27.832V27.9492V28.0664V28.1836V28.3008V28.418V28.5352V28.6523V28.7695V28.8867V29.0039V29.1211V29.2383V29.3555V29.4727V29.5898V29.707V29.8242V29.9414V30.0586V30.1758V30.293V30.4102V30.5273V30.6445V30.7617L13.3008 30.8203L13.2422 30.8789V30.9961L13.1836 31.0547L13.125 31.1133L13.0664 31.1719L13.0078 31.2305V31.3477L12.9492 31.4062L12.8906 31.4648L12.832 31.5234L12.7734 31.582L12.7148 31.6406L12.6562 31.6992V31.8164L12.5977 31.875L12.5391 31.9336V32.0508V32.168V32.2852L12.4805 32.3438L12.4219 32.4023V32.5195V32.6367V32.7539L12.4805 32.8125L12.5391 32.8711V32.9883L12.5977 33.0469L12.6562 33.1055L12.7148 33.1641L12.7734 33.2227L12.832 33.2812L12.8906 33.3398L12.9492 33.3984L13.0078 33.457L13.0664 33.5156H13.1836L13.2422 33.5742L13.3008 33.6328H13.418H13.5352L13.5938 33.6914L13.6523 33.75H13.7695H13.8867H14.0039L14.0625 33.8086L14.1211 33.8672H14.2383H14.3555H14.4727H14.5898H14.707H14.8242L14.8828 33.9258L14.9414 33.9844H15.0586H15.1758H15.293H15.4102H15.5273H15.6445H15.7617H15.8789H15.9961H16.1133H16.2305H16.3477H16.4648H16.582H16.6992H16.8164H16.9336H17.0508H17.168H17.2852H17.4023H17.5195H17.6367H17.7539H17.8711H17.9883L18.0469 33.9258L18.1055 33.8672H18.2227H18.3398H18.457H18.5742H18.6914H18.8086H18.9258H19.043H19.1602L19.2188 33.8086L19.2773 33.75H19.3945H19.5117H19.6289H19.7461H19.8633H19.9805H20.0977H20.2148L20.2734 33.6914L20.332 33.6328H20.4492H20.5664H20.6836H20.8008H20.918H21.0352L21.0938 33.5742L21.1523 33.5156H21.2695H21.3867H21.5039H21.6211H21.7383L21.7969 33.457L21.8555 33.3984H21.9727H22.0898H22.207H22.3242H22.4414L22.5 33.3398L22.5586 33.2812H22.6758H22.793H22.9102H23.0273L23.0859 33.2227L23.1445 33.1641H23.2617H23.3789H23.4961H23.6133H23.7305L23.7891 33.1055L23.8477 33.0469H23.9648H24.082H24.1992H24.3164H24.4336L24.4922 32.9883L24.5508 32.9297H24.668H24.7852H24.9023L24.9609 32.8711L25.0195 32.8125H25.1367H25.2539H25.3711H25.4883L25.5469 32.7539L25.6055 32.6953H25.7227H25.8398H25.957H26.0742L26.1328 32.6367L26.1914 32.5781H26.3086H26.4258H26.543L26.6016 32.5195L26.6602 32.4609H26.7773H26.8945H27.0117H27.1289L27.1875 32.4023L27.2461 32.3438H27.3633H27.4805H27.5977L27.6562 32.2852L27.7148 32.2266H27.832H27.9492H28.0664L28.125 32.168L28.1836 32.1094H28.3008H28.418H28.5352L28.5938 32.0508L28.6523 31.9922H28.7695H28.8867H29.0039L29.0625 31.9336L29.1211 31.875H29.2383H29.3555H29.4727L29.5312 31.8164L29.5898 31.7578H29.707H29.8242H29.9414H30.0586L30.1172 31.6992L30.1758 31.6406H30.293H30.4102H30.5273L30.5859 31.582L30.6445 31.5234H30.7617H30.8789L30.9375 31.4648L30.9961 31.4062H31.1133H31.2305H31.3477L31.4062 31.3477L31.4648 31.2891H31.582H31.6992H31.8164L31.875 31.2305L31.9336 31.1719H32.0508H32.168L32.2266 31.1133L32.2852 31.0547H32.4023H32.5195H32.6367L32.6953 30.9961L32.7539 30.9375H32.8711H32.9883L33.0469 30.8789L33.1055 30.8203H33.2227H33.3398H33.457L33.5156 30.7617L33.5742 30.7031H33.6914H33.8086L33.8672 30.6445L33.9258 30.5859H34.043H34.1602H34.2773L34.3359 30.5273L34.3945 30.4688H34.5117H34.6289H34.7461L34.8047 30.4102L34.8633 30.3516H34.9805H35.0977L35.1562 30.293L35.2148 30.2344H35.332H35.4492H35.5664L35.625 30.1758L35.6836 30.1172H35.8008H35.918L35.9766 30.0586L36.0352 30H36.1523H36.2695L36.3281 29.9414L36.3867 29.8828H36.5039H36.6211L36.6797 29.8242L36.7383 29.7656H36.8555H36.9727H37.0898L37.1484 29.707L37.207 29.6484H37.3242H37.4414L37.5 29.5898L37.5586 29.5312H37.6758H37.793L37.8516 29.4727L37.9102 29.4141H38.0273H38.1445H38.2617L38.3203 29.3555L38.3789 29.2969H38.4961H38.6133L38.6719 29.2383L38.7305 29.1797H38.8477H38.9648L39.0234 29.1211L39.082 29.0625H39.1992H39.3164L39.375 29.0039L39.4336 28.9453H39.5508H39.668L39.7266 28.8867L39.7852 28.8281H39.9023H40.0195L40.0781 28.7695L40.1367 28.7109H40.2539H40.3711L40.4297 28.6523L40.4883 28.5938H40.6055H40.7227L40.7812 28.5352L40.8398 28.4766H40.957H41.0742L41.1328 28.418L41.1914 28.3594H41.3086H41.4258L41.4844 28.3008L41.543 28.2422H41.6602H41.7773L41.8359 28.1836L41.8945 28.125H42.0117H42.1289L42.1875 28.0664L42.2461 28.0078H42.3633H42.4805L42.5391 27.9492L42.5977 27.8906H42.7148H42.832L42.8906 27.832L42.9492 27.7734H43.0664H43.1836L43.2422 27.7148L43.3008 27.6562H43.418H43.5352L43.5938 27.5977L43.6523 27.5391H43.7695H43.8867L43.9453 27.4805L44.0039 27.4219H44.1211L44.1797 27.3633L44.2383 27.3047H44.3555H44.4727H44.5898L44.6484 27.2461L44.707 27.1875H44.8242H44.9414L45 27.1289L45.0586 27.0703H45.1758L45.2344 27.0117L45.293 26.9531H45.4102H45.5273L45.5859 26.8945L45.6445 26.8359H45.7617H45.8789L45.9375 26.7773L45.9961 26.7188H46.1133H46.2305L46.2891 26.6602L46.3477 26.6016H46.4648L46.5234 26.543L46.582 26.4844H46.6992H46.8164L46.875 26.4258L46.9336 26.3672H47.0508H47.168L47.2266 26.3086L47.2852 26.25H47.4023H47.5195L47.5781 26.1914L47.6367 26.1328H47.7539L47.8125 26.0742L47.8711 26.0156H47.9883H48.1055L48.1641 25.957L48.2227 25.8984H48.3398L48.3984 25.8398L48.457 25.7812H48.5742H48.6914L48.75 25.7227L48.8086 25.6641H48.9258H49.043L49.1016 25.6055L49.1602 25.5469H49.2773L49.3359 25.4883L49.3945 25.4297H49.5117H49.6289L49.6875 25.3711L49.7461 25.3125H49.8633H49.9805L50.0391 25.2539L50.0977 25.1953H50.2148L50.2734 25.1367L50.332 25.0781H50.4492H50.5664L50.625 25.0195L50.6836 24.9609H50.8008L50.8594 24.9023L50.918 24.8438H51.0352H51.1523L51.2109 24.7852L51.2695 24.7266H51.3867L51.4453 24.668L51.5039 24.6094H51.6211H51.7383L51.7969 24.5508L51.8555 24.4922H51.9727L52.0312 24.4336L52.0898 24.375H52.207H52.3242L52.3828 24.3164L52.4414 24.2578H52.5586L52.6172 24.1992L52.6758 24.1406H52.793H52.9102L52.9688 24.082L53.0273 24.0234H53.1445L53.2031 23.9648L53.2617 23.9062H53.3789H53.4961L53.5547 23.8477L53.6133 23.7891H53.7305L53.7891 23.7305L53.8477 23.6719H53.9648H54.082L54.1406 23.6133L54.1992 23.5547H54.3164L54.375 23.4961L54.4336 23.4375H54.5508H54.668L54.7266 23.3789L54.7852 23.3203H54.9023L54.9609 23.2617L55.0195 23.2031H55.1367H55.2539L55.3125 23.1445L55.3711 23.0859H55.4883L55.5469 23.0273L55.6055 22.9688H55.7227L55.7812 22.9102L55.8398 22.8516H55.957H56.0742L56.1328 22.793L56.1914 22.7344H56.3086L56.3672 22.6758L56.4258 22.6172H56.543H56.6602L56.7188 22.5586L56.7773 22.5H56.8945L56.9531 22.4414L57.0117 22.3828H57.1289L57.1875 22.3242L57.2461 22.2656H57.3633L57.4219 22.207L57.4805 22.1484H57.5977H57.7148L57.7734 22.0898L57.832 22.0312H57.9492L58.0078 21.9727L58.0664 21.9141H58.1836L58.2422 21.8555L58.3008 21.7969H58.418H58.5352L58.5938 21.7383L58.6523 21.6797H58.7695L58.8281 21.6211L58.8867 21.5625H59.0039L59.0625 21.5039L59.1211 21.4453H59.2383H59.3555L59.4141 21.3867L59.4727 21.3281H59.5898L59.6484 21.2695L59.707 21.2109H59.8242L59.8828 21.1523L59.9414 21.0938H60.0586L60.1172 21.0352L60.1758 20.9766H60.293L60.3516 20.918L60.4102 20.8594H60.5273H60.6445L60.7031 20.8008L60.7617 20.7422H60.8789L60.9375 20.6836L60.9961 20.625H61.1133L61.1719 20.5664L61.2305 20.5078H61.3477L61.4062 20.4492L61.4648 20.3906H61.582L61.6406 20.332L61.6992 20.2734H61.8164H61.9336L61.9922 20.2148L62.0508 20.1562H62.168L62.2266 20.0977L62.2852 20.0391H62.4023L62.4609 19.9805L62.5195 19.9219H62.6367L62.6953 19.8633L62.7539 19.8047H62.8711L62.9297 19.7461L62.9883 19.6875H63.1055L63.1641 19.6289L63.2227 19.5703H63.3398L63.3984 19.5117L63.457 19.4531H63.5742L63.6328 19.3945L63.6914 19.3359H63.8086L63.8672 19.2773L63.9258 19.2188H64.043L64.1016 19.1602L64.1602 19.1016H64.2773H64.3945L64.4531 19.043L64.5117 18.9844H64.6289L64.6875 18.9258L64.7461 18.8672H64.8633L64.9219 18.8086L64.9805 18.75H65.0977L65.1562 18.6914L65.2148 18.6328H65.332L65.3906 18.5742L65.4492 18.5156H65.5664L65.625 18.457L65.6836 18.3984H65.8008L65.8594 18.3398L65.918 18.2812H66.0352L66.0938 18.2227L66.1523 18.1641H66.2695L66.3281 18.1055L66.3867 18.0469H66.5039L66.5625 17.9883L66.6211 17.9297H66.7383L66.7969 17.8711L66.8555 17.8125L66.9141 17.7539L66.9727 17.6953H67.0898L67.1484 17.6367L67.207 17.5781H67.3242L67.3828 17.5195L67.4414 17.4609H67.5586L67.6172 17.4023L67.6758 17.3438H67.793L67.8516 17.2852L67.9102 17.2266H68.0273L68.0859 17.168L68.1445 17.1094H68.2617L68.3203 17.0508L68.3789 16.9922H68.4961L68.5547 16.9336L68.6133 16.875L68.6719 16.8164L68.7305 16.7578H68.8477L68.9062 16.6992L68.9648 16.6406H69.082L69.1406 16.582L69.1992 16.5234H69.3164L69.375 16.4648L69.4336 16.4062H69.5508L69.6094 16.3477L69.668 16.2891H69.7852L69.8438 16.2305L69.9023 16.1719L69.9609 16.1133L70.0195 16.0547H70.1367L70.1953 15.9961L70.2539 15.9375H70.3711L70.4297 15.8789L70.4883 15.8203L70.5469 15.7617L70.6055 15.7031H70.7227L70.7812 15.6445L70.8398 15.5859H70.957L71.0156 15.5273L71.0742 15.4688H71.1914L71.25 15.4102L71.3086 15.3516L71.3672 15.293L71.4258 15.2344H71.543L71.6016 15.1758L71.6602 15.1172H71.7773L71.8359 15.0586L71.8945 15L71.9531 14.9414L72.0117 14.8828H72.1289L72.1875 14.8242L72.2461 14.7656L72.3047 14.707L72.3633 14.6484H72.4805L72.5391 14.5898L72.5977 14.5312H72.7148L72.7734 14.4727L72.832 14.4141L72.8906 14.3555L72.9492 14.2969H73.0664L73.125 14.2383L73.1836 14.1797L73.2422 14.1211L73.3008 14.0625H73.418L73.4766 14.0039L73.5352 13.9453L73.5938 13.8867L73.6523 13.8281H73.7695L73.8281 13.7695L73.8867 13.7109L73.9453 13.6523L74.0039 13.5938H74.1211L74.1797 13.5352L74.2383 13.4766L74.2969 13.418L74.3555 13.3594H74.4727L74.5312 13.3008L74.5898 13.2422L74.6484 13.1836L74.707 13.125L74.7656 13.0664L74.8242 13.0078H74.9414L75 12.9492L75.0586 12.8906L75.1172 12.832L75.1758 12.7734L75.2344 12.7148L75.293 12.6562H75.4102L75.4688 12.5977L75.5273 12.5391L75.5859 12.4805L75.6445 12.4219L75.7031 12.3633L75.7617 12.3047L75.8203 12.2461L75.8789 12.1875H75.9961L76.0547 12.1289L76.1133 12.0703L76.1719 12.0117L76.2305 11.9531L76.2891 11.8945L76.3477 11.8359L76.4062 11.7773L76.4648 11.7188L76.5234 11.6602L76.582 11.6016L76.6406 11.543L76.6992 11.4844L76.7578 11.4258L76.8164 11.3672L76.875 11.3086L76.9336 11.25L76.9922 11.1914L77.0508 11.1328L77.1094 11.0742L77.168 11.0156L77.2266 10.957L77.2852 10.8984L77.3438 10.8398L77.4023 10.7812L77.4609 10.7227L77.5195 10.6641L77.5781 10.6055L77.6367 10.5469L77.6953 10.4883V10.3711L77.7539 10.3125L77.8125 10.2539L77.8711 10.1953L77.9297 10.1367V10.0195L77.9883 9.96094L78.0469 9.90234V9.78516V9.66797L78.1055 9.60938L78.1641 9.55078V9.43359V9.31641V9.19922V9.08203V8.96484V8.84766L78.1055 8.78906L78.0469 8.73047L77.9883 8.67188L77.9297 8.61328L77.8711 8.55469L77.8125 8.49609L77.7539 8.4375L77.6953 8.37891L77.6367 8.32031H77.5195L77.4609 8.26172L77.4023 8.20312H77.2852L77.2266 8.14453L77.168 8.08594H77.0508H76.9336H76.8164L76.7578 8.02734L76.6992 7.96875H76.582H76.4648H76.3477L76.2891 7.91016L76.2305 7.85156H76.1133L76.0547 7.79297V7.67578L75.9961 7.61719L75.9375 7.55859V7.44141V7.32422V7.20703L75.8789 7.14844L75.8203 7.08984V6.97266V6.85547L75.7617 6.79688L75.7031 6.73828V6.62109V6.50391L75.6445 6.44531L75.5859 6.38672V6.26953V6.15234L75.5273 6.09375L75.4688 6.03516V5.91797L75.4102 5.85938L75.3516 5.80078V5.68359L75.293 5.625L75.2344 5.56641V5.44922L75.1758 5.39062L75.1172 5.33203L75.0586 5.27344L75 5.21484V5.09766L74.9414 5.03906L74.8828 4.98047L74.8242 4.92188L74.7656 4.86328V4.74609L74.707 4.6875L74.6484 4.62891L74.5898 4.57031L74.5312 4.51172L74.4727 4.45312L74.4141 4.39453V4.27734L74.3555 4.21875L74.2969 4.16016L74.3555 4.10156L74.4141 4.04297L74.4727 3.98438H74.5898H74.707H74.8242L74.8828 3.92578L74.9414 3.86719H75.0586H75.1758H75.293H75.4102H75.5273L75.5859 3.80859L75.6445 3.75H75.7617H75.8789H75.9961H76.1133L76.1719 3.69141L76.2305 3.63281H76.3477H76.4648H76.582H76.6992L76.7578 3.57422L76.8164 3.51562H76.9336H77.0508H77.168H77.2852H77.4023H77.5195L77.5781 3.45703L77.6367 3.39844H77.7539H77.8711H77.9883H78.1055H78.2227L78.2812 3.33984L78.3398 3.28125H78.457H78.5742H78.6914H78.8086H78.9258H79.043H79.1602L79.2188 3.22266L79.2773 3.16406H79.3945H79.5117H79.6289H79.7461H79.8633H79.9805L80.0391 3.10547L80.0977 3.04688H80.2148H80.332H80.4492H80.5664H80.6836H80.8008H80.918H81.0352L81.0938 2.98828L81.1523 2.92969H81.2695H81.3867H81.5039H81.6211H81.7383H81.8555H81.9727H82.0898H82.207H82.3242L82.3828 2.87109L82.4414 2.8125H82.5586H82.6758H82.793H82.9102H83.0273H83.1445H83.2617H83.3789H83.4961H83.6133H83.7305H83.8477H83.9648H84.082H84.1992H84.3164H84.4336H84.5508H84.668H84.7852H84.9023H85.0195H85.1367H85.2539H85.3711H85.4883H85.6055H85.7227H85.8398L85.8984 2.87109L85.957 2.92969H86.0742H86.1914H86.3086H86.4258H86.543H86.6602H86.7773L86.8359 2.98828L86.8945 3.04688H87.0117H87.1289H87.2461L87.3047 3.10547L87.3633 3.16406H87.4805H87.5977H87.7148L87.7734 3.22266L87.832 3.28125H87.9492L88.0078 3.33984L88.0664 3.39844H88.1836L88.2422 3.45703L88.3008 3.51562H88.418L88.4766 3.57422L88.5352 3.63281L88.5938 3.69141L88.6523 3.75H88.7695L88.8281 3.80859L88.8867 3.86719L88.9453 3.92578V4.04297L89.0039 4.10156L89.0625 4.16016L89.1211 4.21875L89.1797 4.27734V4.39453L89.2383 4.45312L89.2969 4.51172V4.62891V4.74609V4.86328V4.98047V5.09766V5.21484V5.33203L89.2383 5.39062L89.1797 5.44922V5.56641V5.68359L89.1211 5.74219L89.0625 5.80078V5.91797L89.0039 5.97656L88.9453 6.03516V6.15234L88.8867 6.21094L88.8281 6.26953V6.38672L88.7695 6.44531L88.7109 6.50391L88.6523 6.5625L88.5938 6.62109V6.73828L88.5352 6.79688L88.4766 6.85547L88.418 6.91406L88.3594 6.97266L88.3008 7.03125L88.2422 7.08984L88.1836 7.14844L88.125 7.20703V7.32422L88.0664 7.38281L88.0078 7.44141L87.9492 7.5L87.8906 7.55859L87.832 7.61719L87.7734 7.67578L87.7148 7.73438L87.6562 7.79297L87.5977 7.85156L87.5391 7.91016L87.4805 7.96875L87.4219 8.02734L87.3633 8.08594L87.3047 8.14453L87.2461 8.20312L87.1875 8.26172L87.1289 8.32031L87.0703 8.37891L87.0117 8.4375L86.9531 8.49609L86.8945 8.55469L86.8359 8.61328L86.7773 8.67188L86.7188 8.73047L86.6602 8.78906H86.543L86.4844 8.84766L86.4258 8.90625L86.3672 8.96484L86.3086 9.02344L86.25 9.08203L86.1914 9.14062L86.1328 9.19922L86.0742 9.25781L86.0156 9.31641L85.957 9.375H85.8398L85.7812 9.43359L85.7227 9.49219L85.6641 9.55078L85.6055 9.60938L85.5469 9.66797L85.4883 9.72656L85.4297 9.78516L85.3711 9.84375H85.2539L85.1953 9.90234L85.1367 9.96094L85.0781 10.0195L85.0195 10.0781L84.9609 10.1367L84.9023 10.1953L84.8438 10.2539L84.7852 10.3125H84.668L84.6094 10.3711L84.5508 10.4297L84.4922 10.4883L84.4336 10.5469L84.375 10.6055L84.3164 10.6641H84.1992L84.1406 10.7227L84.082 10.7812L84.0234 10.8398L83.9648 10.8984H83.8477L83.7891 10.957L83.7305 11.0156L83.6719 11.0742L83.6133 11.1328H83.4961L83.4375 11.1914L83.3789 11.25L83.3203 11.3086L83.2617 11.3672L83.2031 11.4258L83.1445 11.4844H83.0273L82.9688 11.543L82.9102 11.6016L82.8516 11.6602L82.793 11.7188H82.6758L82.6172 11.7773L82.5586 11.8359L82.5 11.8945L82.4414 11.9531H82.3242L82.2656 12.0117L82.207 12.0703H82.0898L82.0312 12.1289L81.9727 12.1875L81.9141 12.2461L81.8555 12.3047H81.7383L81.6797 12.3633L81.6211 12.4219L81.5625 12.4805L81.5039 12.5391H81.3867L81.3281 12.5977L81.2695 12.6562L81.2109 12.7148L81.1523 12.7734H81.0352L80.9766 12.832L80.918 12.8906L80.8594 12.9492L80.8008 13.0078H80.6836L80.625 13.0664L80.5664 13.125H80.4492L80.3906 13.1836L80.332 13.2422L80.2734 13.3008L80.2148 13.3594H80.0977L80.0391 13.418L79.9805 13.4766H79.8633L79.8047 13.5352L79.7461 13.5938L79.6875 13.6523L79.6289 13.7109H79.5117L79.4531 13.7695L79.3945 13.8281H79.2773L79.2188 13.8867L79.1602 13.9453L79.1016 14.0039L79.043 14.0625H78.9258L78.8672 14.1211L78.8086 14.1797H78.6914L78.6328 14.2383L78.5742 14.2969H78.457L78.3984 14.3555L78.3398 14.4141L78.2812 14.4727L78.2227 14.5312H78.1055L78.0469 14.5898L77.9883 14.6484H77.8711L77.8125 14.707L77.7539 14.7656L77.6953 14.8242L77.6367 14.8828H77.5195L77.4609 14.9414L77.4023 15H77.2852L77.2266 15.0586L77.168 15.1172H77.0508L76.9922 15.1758L76.9336 15.2344L76.875 15.293L76.8164 15.3516H76.6992L76.6406 15.4102L76.582 15.4688H76.4648L76.4062 15.5273L76.3477 15.5859H76.2305L76.1719 15.6445L76.1133 15.7031H75.9961L75.9375 15.7617L75.8789 15.8203L75.8203 15.8789L75.7617 15.9375H75.6445L75.5859 15.9961L75.5273 16.0547H75.4102L75.3516 16.1133L75.293 16.1719H75.1758L75.1172 16.2305L75.0586 16.2891H74.9414L74.8828 16.3477L74.8242 16.4062H74.707L74.6484 16.4648L74.5898 16.5234H74.4727L74.4141 16.582L74.3555 16.6406H74.2383L74.1797 16.6992L74.1211 16.7578L74.0625 16.8164L74.0039 16.875H73.8867L73.8281 16.9336L73.7695 16.9922H73.6523L73.5938 17.0508L73.5352 17.1094H73.418L73.3594 17.168L73.3008 17.2266H73.1836L73.125 17.2852L73.0664 17.3438H72.9492L72.8906 17.4023L72.832 17.4609H72.7148L72.6562 17.5195L72.5977 17.5781H72.4805L72.4219 17.6367L72.3633 17.6953H72.2461L72.1875 17.7539L72.1289 17.8125H72.0117L71.9531 17.8711L71.8945 17.9297H71.7773L71.7188 17.9883L71.6602 18.0469H71.543L71.4844 18.1055L71.4258 18.1641H71.3086L71.25 18.2227L71.1914 18.2812H71.0742L71.0156 18.3398L70.957 18.3984H70.8398L70.7812 18.457L70.7227 18.5156H70.6055L70.5469 18.5742L70.4883 18.6328H70.3711L70.3125 18.6914L70.2539 18.75H70.1367L70.0781 18.8086L70.0195 18.8672H69.9023L69.8438 18.9258L69.7852 18.9844H69.668L69.6094 19.043L69.5508 19.1016H69.4336L69.375 19.1602L69.3164 19.2188H69.1992L69.1406 19.2773L69.082 19.3359H68.9648L68.9062 19.3945L68.8477 19.4531H68.7305L68.6719 19.5117L68.6133 19.5703H68.4961L68.4375 19.6289L68.3789 19.6875H68.2617L68.2031 19.7461L68.1445 19.8047H68.0273L67.9688 19.8633L67.9102 19.9219H67.793L67.7344 19.9805L67.6758 20.0391H67.5586L67.5 20.0977L67.4414 20.1562H67.3242H67.207L67.1484 20.2148L67.0898 20.2734H66.9727L66.9141 20.332L66.8555 20.3906H66.7383L66.6797 20.4492L66.6211 20.5078H66.5039L66.4453 20.5664L66.3867 20.625H66.2695L66.2109 20.6836L66.1523 20.7422H66.0352L65.9766 20.8008L65.918 20.8594H65.8008L65.7422 20.918L65.6836 20.9766H65.5664L65.5078 21.0352L65.4492 21.0938H65.332H65.2148L65.1562 21.1523L65.0977 21.2109H64.9805L64.9219 21.2695L64.8633 21.3281H64.7461L64.6875 21.3867L64.6289 21.4453H64.5117L64.4531 21.5039L64.3945 21.5625H64.2773L64.2188 21.6211L64.1602 21.6797H64.043H63.9258L63.8672 21.7383L63.8086 21.7969H63.6914L63.6328 21.8555L63.5742 21.9141H63.457L63.3984 21.9727L63.3398 22.0312H63.2227L63.1641 22.0898L63.1055 22.1484H62.9883L62.9297 22.207L62.8711 22.2656H62.7539L62.6953 22.3242L62.6367 22.3828H62.5195H62.4023L62.3438 22.4414L62.2852 22.5H62.168L62.1094 22.5586L62.0508 22.6172H61.9336L61.875 22.6758L61.8164 22.7344H61.6992L61.6406 22.793L61.582 22.8516H61.4648L61.4062 22.9102L61.3477 22.9688H61.2305H61.1133L61.0547 23.0273L60.9961 23.0859H60.8789L60.8203 23.1445L60.7617 23.2031H60.6445L60.5859 23.2617L60.5273 23.3203H60.4102H60.293L60.2344 23.3789L60.1758 23.4375H60.0586L60 23.4961L59.9414 23.5547H59.8242L59.7656 23.6133L59.707 23.6719H59.5898H59.4727L59.4141 23.7305L59.3555 23.7891H59.2383L59.1797 23.8477L59.1211 23.9062H59.0039L58.9453 23.9648L58.8867 24.0234H58.7695H58.6523L58.5938 24.082L58.5352 24.1406H58.418L58.3594 24.1992L58.3008 24.2578H58.1836L58.125 24.3164L58.0664 24.375H57.9492H57.832L57.7734 24.4336L57.7148 24.4922H57.5977L57.5391 24.5508L57.4805 24.6094H57.3633H57.2461L57.1875 24.668L57.1289 24.7266H57.0117L56.9531 24.7852L56.8945 24.8438H56.7773L56.7188 24.9023L56.6602 24.9609H56.543H56.4258L56.3672 25.0195L56.3086 25.0781H56.1914L56.1328 25.1367L56.0742 25.1953H55.957H55.8398L55.7812 25.2539L55.7227 25.3125H55.6055L55.5469 25.3711L55.4883 25.4297H55.3711L55.3125 25.4883L55.2539 25.5469H55.1367H55.0195L54.9609 25.6055L54.9023 25.6641H54.7852L54.7266 25.7227L54.668 25.7812H54.5508H54.4336L54.375 25.8398L54.3164 25.8984H54.1992L54.1406 25.957L54.082 26.0156H53.9648H53.8477L53.7891 26.0742L53.7305 26.1328H53.6133L53.5547 26.1914L53.4961 26.25H53.3789H53.2617L53.2031 26.3086L53.1445 26.3672H53.0273L52.9688 26.4258L52.9102 26.4844H52.793H52.6758L52.6172 26.543L52.5586 26.6016H52.4414L52.3828 26.6602L52.3242 26.7188H52.207H52.0898L52.0312 26.7773L51.9727 26.8359H51.8555L51.7969 26.8945L51.7383 26.9531H51.6211H51.5039L51.4453 27.0117L51.3867 27.0703H51.2695L51.2109 27.1289L51.1523 27.1875H51.0352H50.918L50.8594 27.2461L50.8008 27.3047H50.6836L50.625 27.3633L50.5664 27.4219H50.4492H50.332L50.2734 27.4805L50.2148 27.5391H50.0977H49.9805L49.9219 27.5977L49.8633 27.6562H49.7461L49.6875 27.7148L49.6289 27.7734H49.5117H49.3945L49.3359 27.832L49.2773 27.8906H49.1602L49.1016 27.9492L49.043 28.0078H48.9258H48.8086L48.75 28.0664L48.6914 28.125H48.5742L48.5156 28.1836L48.457 28.2422H48.3398H48.2227L48.1641 28.3008L48.1055 28.3594H47.9883H47.8711L47.8125 28.418L47.7539 28.4766H47.6367L47.5781 28.5352L47.5195 28.5938H47.4023H47.2852L47.2266 28.6523L47.168 28.7109H47.0508H46.9336L46.875 28.7695L46.8164 28.8281H46.6992L46.6406 28.8867L46.582 28.9453H46.4648H46.3477L46.2891 29.0039L46.2305 29.0625H46.1133L46.0547 29.1211L45.9961 29.1797H45.8789H45.7617L45.7031 29.2383L45.6445 29.2969H45.5273H45.4102L45.3516 29.3555L45.293 29.4141H45.1758H45.0586L45 29.4727L44.9414 29.5312H44.8242L44.7656 29.5898L44.707 29.6484H44.5898H44.4727L44.4141 29.707L44.3555 29.7656H44.2383H44.1211L44.0625 29.8242L44.0039 29.8828H43.8867L43.8281 29.9414L43.7695 30H43.6523H43.5352L43.4766 30.0586L43.418 30.1172H43.3008H43.1836L43.125 30.1758L43.0664 30.2344H42.9492H42.832L42.7734 30.293L42.7148 30.3516H42.5977H42.4805L42.4219 30.4102L42.3633 30.4688H42.2461H42.1289L42.0703 30.5273L42.0117 30.5859H41.8945H41.7773L41.7188 30.6445L41.6602 30.7031H41.543H41.4258L41.3672 30.7617L41.3086 30.8203H41.1914L41.1328 30.8789L41.0742 30.9375H40.957H40.8398L40.7812 30.9961L40.7227 31.0547H40.6055H40.4883L40.4297 31.1133L40.3711 31.1719H40.2539H40.1367L40.0781 31.2305L40.0195 31.2891H39.9023H39.7852L39.7266 31.3477L39.668 31.4062H39.5508H39.4336L39.375 31.4648L39.3164 31.5234H39.1992H39.082L39.0234 31.582L38.9648 31.6406H38.8477H38.7305L38.6719 31.6992L38.6133 31.7578H38.4961H38.3789L38.3203 31.8164L38.2617 31.875H38.1445L38.0859 31.9336L38.0273 31.9922H37.9102H37.793L37.7344 32.0508L37.6758 32.1094H37.5586H37.4414L37.3828 32.168L37.3242 32.2266H37.207H37.0898L37.0312 32.2852L36.9727 32.3438H36.8555H36.7383L36.6797 32.4023L36.6211 32.4609H36.5039H36.3867L36.3281 32.5195L36.2695 32.5781H36.1523H36.0352L35.9766 32.6367L35.918 32.6953H35.8008H35.6836L35.625 32.7539L35.5664 32.8125H35.4492H35.332L35.2734 32.8711L35.2148 32.9297H35.0977H34.9805H34.8633L34.8047 32.9883L34.7461 33.0469H34.6289H34.5117L34.4531 33.1055L34.3945 33.1641H34.2773H34.1602L34.1016 33.2227L34.043 33.2812H33.9258H33.8086L33.75 33.3398L33.6914 33.3984H33.5742H33.457L33.3984 33.457L33.3398 33.5156H33.2227H33.1055L33.0469 33.5742L32.9883 33.6328H32.8711H32.7539L32.6953 33.6914L32.6367 33.75H32.5195H32.4023L32.3438 33.8086L32.2852 33.8672H32.168H32.0508H31.9336L31.875 33.9258L31.8164 33.9844H31.6992H31.582L31.5234 34.043L31.4648 34.1016H31.3477H31.2305L31.1719 34.1602L31.1133 34.2188H30.9961H30.8789L30.8203 34.2773L30.7617 34.3359H30.6445H30.5273H30.4102L30.3516 34.3945L30.293 34.4531H30.1758H30.0586L30 34.5117L29.9414 34.5703H29.8242H29.707L29.6484 34.6289L29.5898 34.6875H29.4727H29.3555H29.2383L29.1797 34.7461L29.1211 34.8047H29.0039H28.8867L28.8281 34.8633L28.7695 34.9219H28.6523H28.5352H28.418L28.3594 34.9805L28.3008 35.0391H28.1836H28.0664L28.0078 35.0977L27.9492 35.1562H27.832H27.7148L27.6562 35.2148L27.5977 35.2734H27.4805H27.3633H27.2461L27.1875 35.332L27.1289 35.3906H27.0117H26.8945L26.8359 35.4492L26.7773 35.5078H26.6602H26.543H26.4258L26.3672 35.5664L26.3086 35.625H26.1914H26.0742L26.0156 35.6836L25.957 35.7422H25.8398H25.7227H25.6055L25.5469 35.8008L25.4883 35.8594H25.3711H25.2539L25.1953 35.918L25.1367 35.9766H25.0195H24.9023H24.7852L24.7266 36.0352L24.668 36.0938H24.5508H24.4336L24.375 36.1523L24.3164 36.2109H24.1992H24.082H23.9648L23.9062 36.2695L23.8477 36.3281H23.7305H23.6133H23.4961L23.4375 36.3867L23.3789 36.4453H23.2617H23.1445H23.0273L22.9688 36.5039L22.9102 36.5625H22.793H22.6758H22.5586L22.5 36.6211L22.4414 36.6797H22.3242H22.207H22.0898L22.0312 36.7383L21.9727 36.7969H21.8555H21.7383H21.6211L21.5625 36.8555L21.5039 36.9141H21.3867H21.2695H21.1523L21.0938 36.9727L21.0352 37.0312H20.918H20.8008H20.6836L20.625 37.0898L20.5664 37.1484H20.4492H20.332H20.2148L20.1562 37.207L20.0977 37.2656H19.9805H19.8633H19.7461L19.6875 37.3242L19.6289 37.3828H19.5117H19.3945H19.2773L19.2188 37.4414L19.1602 37.5H19.043H18.9258H18.8086L18.75 37.5586L18.6914 37.6172H18.5742H18.457H18.3398H18.2227L18.1641 37.6758L18.1055 37.7344H17.9883H17.8711H17.7539L17.6953 37.793L17.6367 37.8516H17.5195H17.4023H17.2852H17.168L17.1094 37.9102L17.0508 37.9688H16.9336H16.8164H16.6992H16.582L16.5234 38.0273L16.4648 38.0859H16.3477H16.2305H16.1133L16.0547 38.1445L15.9961 38.2031H15.8789H15.7617H15.6445H15.5273L15.4688 38.2617L15.4102 38.3203H15.293H15.1758H15.0586H14.9414L14.8828 38.3789L14.8242 38.4375H14.707H14.5898H14.4727H14.3555L14.2969 38.4961L14.2383 38.5547H14.1211H14.0039H13.8867H13.7695L13.7109 38.6133L13.6523 38.6719H13.5352H13.418H13.3008H13.1836H13.0664L13.0078 38.7305L12.9492 38.7891H12.832H12.7148H12.5977H12.4805H12.3633L12.3047 38.8477L12.2461 38.9062H12.1289H12.0117H11.8945H11.7773H11.6602L11.6016 38.9648L11.543 39.0234H11.4258H11.3086H11.1914H11.0742H10.957L10.8984 39.082L10.8398 39.1406H10.7227H10.6055H10.4883H10.3711H10.2539H10.1367L10.0781 39.1992L10.0195 39.2578H9.90234H9.78516H9.66797H9.55078H9.43359H9.31641H9.19922L9.14062 39.3164L9.08203 39.375H8.96484H8.84766H8.73047H8.61328H8.49609H8.37891H8.26172H8.14453L8.08594 39.4336L8.02734 39.4922H7.91016H7.79297H7.67578H7.55859H7.44141H7.32422H7.20703H7.08984H6.97266H6.85547H6.73828L6.67969 39.5508L6.62109 39.6094Z" fill="white"/>
<path d="M45.8789 12.1875H45.7617H45.6445H45.5273H45.4102H45.293H45.1758H45.0586H44.9414H44.8242H44.707H44.5898H44.4727H44.3555H44.2383H44.1211H44.0039H43.8867H43.7695H43.6523H43.5352H43.418H43.3008H43.1836H43.0664H42.9492H42.832H42.7148H42.5977H42.4805H42.3633H42.2461H42.1289H42.0117H41.8945H41.7773H41.6602H41.543H41.4258H41.3086H41.1914H41.0742H40.957H40.8398H40.7227H40.6055H40.4883H40.3711H40.2539H40.1367H40.0195H39.9023H39.7852H39.668H39.5508H39.4336H39.3164H39.1992H39.082H38.9648H38.8477H38.7305H38.6133H38.4961H38.3789H38.2617H38.1445H38.0273H37.9102H37.793H37.6758H37.5586H37.4414H37.3242H37.207H37.0898H36.9727H36.8555H36.7383H36.6211H36.5039H36.3867H36.2695H36.1523H36.0352H35.918H35.8008H35.6836H35.5664H35.4492H35.332H35.2148H35.0977H34.9805H34.8633H34.7461H34.6289H34.5117H34.3945H34.2773H34.1602H34.043H33.9258H33.8086H33.6914H33.5742H33.457H33.3398H33.2227H33.1055H32.9883H32.8711H32.7539H32.6367H32.5195H32.4023H32.2852H32.168H32.0508H31.9336H31.8164H31.6992H31.582H31.4648H31.3477H31.2305H31.1133H30.9961H30.8789H30.7617H30.6445H30.5273H30.4102H30.293H30.1758H30.0586H29.9414H29.8242H29.707H29.5898H29.4727H29.3555H29.2383H29.1211H29.0039H28.8867H28.7695H28.6523H28.5352H28.418H28.3008H28.1836H28.0664H27.9492H27.832H27.7148H27.5977H27.4805H27.3633H27.2461H27.1289L27.0703 12.1289V12.0117V11.8945V11.7773V11.6602V11.543V11.4258V11.3086V11.1914V11.0742V10.957V10.8398V10.7227V10.6055V10.4883V10.3711V10.2539V10.1367V10.0195V9.90234V9.78516V9.66797V9.55078V9.43359V9.31641V9.19922V9.08203V8.96484V8.84766V8.73047V8.61328V8.49609V8.37891V8.26172V8.14453V8.02734V7.91016V7.79297V7.67578V7.55859V7.44141V7.32422L27.1289 7.26562L27.1875 7.20703L27.2461 7.14844H27.3633H27.4805H27.5977H27.7148H27.832H27.9492H28.0664H28.1836H28.3008H28.418H28.5352H28.6523H28.7695H28.8867H29.0039H29.1211H29.2383H29.3555H29.4727H29.5898H29.707H29.8242H29.9414H30.0586H30.1758H30.293H30.4102H30.5273H30.6445H30.7617H30.8789H30.9961H31.1133H31.2305H31.3477H31.4648H31.582H31.6992H31.8164H31.9336H32.0508H32.168H32.2852H32.4023H32.5195H32.6367H32.7539H32.8711H32.9883H33.1055H33.2227H33.3398H33.457H33.5742H33.6914H33.8086H33.9258H34.043H34.1602H34.2773H34.3945H34.5117H34.6289H34.7461H34.8633H34.9805H35.0977H35.2148H35.332H35.4492H35.5664H35.6836H35.8008H35.918H36.0352H36.1523H36.2695H36.3867H36.5039H36.6211H36.7383H36.8555H36.9727H37.0898H37.207H37.3242H37.4414H37.5586H37.6758H37.793H37.9102H38.0273H38.1445H38.2617H38.3789H38.4961H38.6133H38.7305H38.8477H38.9648H39.082H39.1992H39.3164H39.4336H39.5508H39.668H39.7852H39.9023H40.0195H40.1367H40.2539H40.3711H40.4883H40.6055H40.7227H40.8398H40.957H41.0742H41.1914H41.3086H41.4258H41.543H41.6602H41.7773H41.8945H42.0117H42.1289H42.2461H42.3633H42.4805H42.5977H42.7148H42.832H42.9492H43.0664H43.1836H43.3008H43.418H43.5352H43.6523H43.7695H43.8867H44.0039H44.1211H44.2383H44.3555H44.4727H44.5898H44.707H44.8242H44.9414H45.0586H45.1758H45.293H45.4102H45.5273H45.6445H45.7617L45.8203 7.20703L45.8789 7.26562L45.9375 7.32422V7.44141V7.55859V7.67578V7.79297V7.91016V8.02734V8.14453V8.26172V8.37891V8.49609V8.61328V8.73047V8.84766V8.96484V9.08203V9.19922V9.31641V9.43359V9.55078V9.66797V9.78516V9.90234V10.0195V10.1367V10.2539V10.3711V10.4883V10.6055V10.7227V10.8398V10.957V11.0742V11.1914V11.3086V11.4258V11.543V11.6602V11.7773V11.8945V12.0117V12.1289L45.8789 12.1875Z" fill="white"/>
<path d="M27.2461 31.875L27.1875 31.8164L27.1289 31.7578L27.0703 31.6992V31.582V31.4648V31.3477V31.2305V31.1133V30.9961V30.8789V30.7617V30.6445V30.5273V30.4102V30.293V30.1758V30.0586V29.9414V29.8242V29.707V29.5898V29.4727V29.3555V29.2383V29.1211V29.0039V28.8867V28.7695V28.6523V28.5352V28.418V28.3008V28.1836V28.0664V27.9492V27.832V27.7148V27.5977V27.4805V27.3633V27.2461V27.1289V27.0117V26.8945V26.7773V26.6602V26.543V26.4258V26.3086V26.1914V26.0742V25.957V25.8398V25.7227V25.6055V25.4883V25.3711V25.2539V25.1367V25.0195V24.9023V24.7852V24.668V24.5508V24.4336V24.3164V24.1992V24.082V23.9648V23.8477V23.7305V23.6133V23.4961V23.3789V23.2617V23.1445V23.0273V22.9102V22.793V22.6758V22.5586V22.4414V22.3242V22.207V22.0898V21.9727V21.8555V21.7383V21.6211V21.5039V21.3867V21.2695V21.1523V21.0352V20.918V20.8008V20.6836V20.5664V20.4492V20.332V20.2148V20.0977V19.9805V19.8633V19.7461V19.6289V19.5117V19.3945V19.2773V19.1602V19.043V18.9258V18.8086V18.6914V18.5742V18.457V18.3398V18.2227V18.1055V17.9883V17.8711V17.7539V17.6367V17.5195V17.4023V17.2852V17.168V17.0508V16.9336V16.8164V16.6992V16.582V16.4648V16.3477V16.2305V16.1133V15.9961V15.8789V15.7617V15.6445V15.5273V15.4102V15.293V15.1758V15.0586V14.9414V14.8242V14.707V14.5898V14.4727L27.1289 14.4141H27.2461H27.3633H27.4805H27.5977H27.7148H27.832H27.9492H28.0664H28.1836H28.3008H28.418H28.5352H28.6523H28.7695H28.8867H29.0039H29.1211H29.2383H29.3555H29.4727H29.5898H29.707H29.8242H29.9414H30.0586H30.1758H30.293H30.4102H30.5273H30.6445H30.7617H30.8789H30.9961H31.1133H31.2305H31.3477H31.4648H31.582H31.6992H31.8164H31.9336H32.0508H32.168H32.2852H32.4023H32.5195H32.6367H32.7539H32.8711H32.9883H33.1055H33.2227H33.3398H33.457H33.5742H33.6914H33.8086H33.9258H34.043H34.1602H34.2773H34.3945H34.5117L34.5703 14.4727V14.5898V14.707V14.8242V14.9414V15.0586V15.1758V15.293V15.4102V15.5273V15.6445V15.7617V15.8789V15.9961V16.1133V16.2305V16.3477V16.4648V16.582V16.6992V16.8164V16.9336V17.0508V17.168V17.2852V17.4023V17.5195V17.6367V17.7539V17.8711V17.9883V18.1055V18.2227V18.3398V18.457V18.5742V18.6914V18.8086V18.9258V19.043V19.1602V19.2773V19.3945V19.5117V19.6289V19.7461V19.8633V19.9805V20.0977V20.2148V20.332V20.4492V20.5664V20.6836V20.8008V20.918V21.0352V21.1523V21.2695V21.3867V21.5039V21.6211V21.7383V21.8555V21.9727V22.0898V22.207V22.3242V22.4414V22.5586V22.6758V22.793V22.9102V23.0273V23.1445V23.2617V23.3789V23.4961V23.6133V23.7305V23.8477V23.9648V24.082V24.1992V24.3164V24.4336V24.5508V24.668V24.7852V24.9023V25.0195V25.1367V25.2539V25.3711V25.4883V25.6055V25.7227V25.8398V25.957V26.0742V26.1914V26.3086V26.4258V26.543V26.6602V26.7773V26.8945V27.0117V27.1289V27.2461V27.3633V27.4805V27.5977V27.7148V27.832V27.9492V28.0664V28.1836V28.3008V28.418V28.5352V28.6523V28.7695V28.8867V29.0039V29.1211V29.2383V29.3555V29.4727V29.5898V29.707V29.8242L34.5117 29.8828L34.4531 29.9414L34.3945 30H34.2773H34.1602H34.043L33.9844 30.0586L33.9258 30.1172H33.8086H33.6914L33.6328 30.1758L33.5742 30.2344H33.457H33.3398H33.2227L33.1641 30.293L33.1055 30.3516H32.9883H32.8711L32.8125 30.4102L32.7539 30.4688H32.6367H32.5195H32.4023L32.3438 30.5273L32.2852 30.5859H32.168H32.0508L31.9922 30.6445L31.9336 30.7031H31.8164H31.6992H31.582L31.5234 30.7617L31.4648 30.8203H31.3477H31.2305H31.1133L31.0547 30.8789L30.9961 30.9375H30.8789H30.7617H30.6445L30.5859 30.9961L30.5273 31.0547H30.4102H30.293H30.1758L30.1172 31.1133L30.0586 31.1719H29.9414H29.8242L29.7656 31.2305L29.707 31.2891H29.5898H29.4727H29.3555L29.2969 31.3477L29.2383 31.4062H29.1211H29.0039H28.8867H28.7695L28.7109 31.4648L28.6523 31.5234H28.5352H28.418H28.3008L28.2422 31.582L28.1836 31.6406H28.0664H27.9492H27.832L27.7734 31.6992L27.7148 31.7578H27.5977H27.4805H27.3633L27.3047 31.8164L27.2461 31.875Z" fill="white"/>
<path d="M64.6289 36.3281H64.5117H64.3945H64.2773H64.1602H64.043H63.9258H63.8086H63.6914H63.5742H63.457H63.3398H63.2227H63.1055H62.9883H62.8711H62.7539H62.6367H62.5195H62.4023H62.2852H62.168H62.0508H61.9336H61.8164H61.6992H61.582H61.4648H61.3477H61.2305H61.1133H60.9961H60.8789H60.7617H60.6445H60.5273H60.4102H60.293H60.1758H60.0586L60 36.2695L59.9414 36.2109H59.8242H59.707H59.5898H59.4727H59.3555H59.2383H59.1211H59.0039H58.8867L58.8281 36.1523L58.7695 36.0938H58.6523H58.5352H58.418H58.3008H58.1836H58.0664L58.0078 36.0352L57.9492 35.9766H57.832H57.7148H57.5977H57.4805H57.3633L57.3047 35.918L57.2461 35.8594H57.1289H57.0117H56.8945H56.7773L56.7188 35.8008L56.6602 35.7422H56.543H56.4258H56.3086L56.25 35.6836L56.1914 35.625H56.0742H55.957H55.8398L55.7812 35.5664L55.7227 35.5078H55.6055H55.4883H55.3711L55.3125 35.4492L55.2539 35.3906H55.1367H55.0195L54.9609 35.332L54.9023 35.2734H54.7852H54.668L54.6094 35.2148L54.5508 35.1562H54.4336H54.3164L54.2578 35.0977L54.1992 35.0391H54.082H53.9648L53.9062 34.9805L53.8477 34.9219H53.7305H53.6133L53.5547 34.8633L53.4961 34.8047H53.3789H53.2617L53.2031 34.7461L53.1445 34.6875H53.0273L52.9688 34.6289L52.9102 34.5703H52.793L52.7344 34.5117L52.6758 34.4531H52.5586H52.4414L52.3828 34.3945L52.3242 34.3359H52.207L52.1484 34.2773L52.0898 34.2188H51.9727L51.9141 34.1602L51.8555 34.1016H51.7383L51.6797 34.043L51.6211 33.9844H51.5039L51.4453 33.9258L51.3867 33.8672H51.2695L51.2109 33.8086L51.1523 33.75H51.0352L50.9766 33.6914L50.918 33.6328H50.8008L50.7422 33.5742L50.6836 33.5156H50.5664L50.5078 33.457L50.4492 33.3984L50.3906 33.3398L50.332 33.2812H50.2148L50.1562 33.2227L50.0977 33.1641H49.9805L49.9219 33.1055L49.8633 33.0469L49.8047 32.9883L49.7461 32.9297H49.6289L49.5703 32.8711L49.5117 32.8125L49.4531 32.7539L49.3945 32.6953H49.2773L49.2188 32.6367L49.1602 32.5781L49.1016 32.5195L49.043 32.4609L48.9844 32.4023L48.9258 32.3438H48.8086L48.75 32.2852L48.6914 32.2266L48.6328 32.168L48.5742 32.1094L48.5156 32.0508L48.457 31.9922L48.3984 31.9336L48.3398 31.875H48.2227L48.1641 31.8164L48.1055 31.7578L48.0469 31.6992L47.9883 31.6406L47.9297 31.582L47.8711 31.5234L47.8125 31.4648L47.7539 31.4062L47.6953 31.3477L47.6367 31.2891L47.5781 31.2305L47.5195 31.1719L47.4609 31.1133L47.4023 31.0547L47.3438 30.9961L47.2852 30.9375L47.2266 30.8789L47.168 30.8203L47.1094 30.7617L47.0508 30.7031L46.9922 30.6445L46.9336 30.5859L46.875 30.5273L46.8164 30.4688L46.7578 30.4102L46.6992 30.3516L46.6406 30.293V30.1758L46.582 30.1172L46.5234 30.0586L46.4648 30L46.4062 29.9414L46.3477 29.8828L46.2891 29.8242V29.707L46.3477 29.6484L46.4062 29.5898L46.4648 29.5312H46.582H46.6992L46.7578 29.4727L46.8164 29.4141H46.9336L46.9922 29.3555L47.0508 29.2969H47.168H47.2852L47.3438 29.2383L47.4023 29.1797H47.5195H47.6367L47.6953 29.1211L47.7539 29.0625H47.8711L47.9297 29.0039L47.9883 28.9453H48.1055H48.2227L48.2812 28.8867L48.3398 28.8281H48.457L48.5156 28.7695L48.5742 28.7109H48.6914H48.8086L48.8672 28.6523L48.9258 28.5938H49.043L49.1016 28.5352L49.1602 28.4766H49.2773H49.3945L49.4531 28.418L49.5117 28.3594H49.6289H49.7461L49.8047 28.3008L49.8633 28.2422H49.9805L50.0391 28.1836L50.0977 28.125H50.2148H50.332L50.3906 28.0664L50.4492 28.0078H50.5664L50.625 27.9492L50.6836 27.8906H50.8008H50.918L50.9766 27.832L51.0352 27.7734H51.1523H51.2695L51.3281 27.7148L51.3867 27.6562H51.5039L51.5625 27.5977L51.6211 27.5391H51.7383H51.8555L51.9141 27.4805L51.9727 27.4219H52.0898L52.1484 27.3633L52.207 27.3047H52.3242H52.4414L52.5 27.2461L52.5586 27.1875H52.6758H52.793L52.8516 27.2461V27.3633L52.9102 27.4219L52.9688 27.4805L53.0273 27.5391L53.0859 27.5977L53.1445 27.6562L53.2031 27.7148L53.2617 27.7734L53.3203 27.832L53.3789 27.8906L53.4375 27.9492V28.0664L53.4961 28.125L53.5547 28.1836L53.6133 28.2422L53.6719 28.3008L53.7305 28.3594L53.7891 28.418L53.8477 28.4766L53.9062 28.5352L53.9648 28.5938H54.082L54.1406 28.6523L54.1992 28.7109L54.2578 28.7695L54.3164 28.8281L54.375 28.8867L54.4336 28.9453L54.4922 29.0039L54.5508 29.0625H54.668L54.7266 29.1211L54.7852 29.1797L54.8438 29.2383L54.9023 29.2969H55.0195L55.0781 29.3555L55.1367 29.4141L55.1953 29.4727L55.2539 29.5312H55.3711L55.4297 29.5898L55.4883 29.6484H55.6055L55.6641 29.707L55.7227 29.7656H55.8398L55.8984 29.8242L55.957 29.8828H56.0742L56.1328 29.9414L56.1914 30H56.3086L56.3672 30.0586L56.4258 30.1172H56.543L56.6016 30.1758L56.6602 30.2344H56.7773L56.8359 30.293L56.8945 30.3516H57.0117H57.1289L57.1875 30.4102L57.2461 30.4688H57.3633H57.4805L57.5391 30.5273L57.5977 30.5859H57.7148H57.832L57.8906 30.6445L57.9492 30.7031H58.0664H58.1836L58.2422 30.7617L58.3008 30.8203H58.418H58.5352H58.6523L58.7109 30.8789L58.7695 30.9375H58.8867H59.0039H59.1211L59.1797 30.9961L59.2383 31.0547H59.3555H59.4727H59.5898H59.707L59.7656 31.1133L59.8242 31.1719H59.9414H60.0586H60.1758H60.293H60.4102H60.5273H60.6445L60.7031 31.2305L60.7617 31.2891H60.8789H60.9961H61.1133H61.2305H61.3477H61.4648H61.582H61.6992H61.8164H61.9336H62.0508H62.168H62.2852H62.4023H62.5195H62.6367H62.7539H62.8711H62.9883H63.1055H63.2227H63.3398H63.457H63.5742H63.6914L63.75 31.2305L63.8086 31.1719H63.9258H64.043H64.1602H64.2773H64.3945H64.5117H64.6289H64.7461L64.8047 31.1133L64.8633 31.0547H64.9805H65.0977H65.2148H65.332L65.3906 30.9961L65.4492 30.9375H65.5664H65.6836H65.8008L65.8594 30.8789L65.918 30.8203H66.0352H66.1523H66.2695L66.3281 30.7617L66.3867 30.7031H66.5039H66.6211L66.6797 30.6445L66.7383 30.5859H66.8555H66.9727L67.0312 30.5273L67.0898 30.4688H67.207H67.3242L67.3828 30.4102L67.4414 30.3516H67.5586H67.6758L67.7344 30.293L67.793 30.2344H67.9102L67.9688 30.1758L68.0273 30.1172H68.1445L68.2031 30.0586L68.2617 30H68.3789L68.4375 29.9414L68.4961 29.8828H68.6133L68.6719 29.8242L68.7305 29.7656H68.8477L68.9062 29.707L68.9648 29.6484H69.082L69.1406 29.5898L69.1992 29.5312H69.3164L69.375 29.4727L69.4336 29.4141L69.4922 29.3555L69.5508 29.2969H69.668L69.7266 29.2383L69.7852 29.1797L69.8438 29.1211L69.9023 29.0625H70.0195L70.0781 29.0039L70.1367 28.9453L70.1953 28.8867L70.2539 28.8281L70.3125 28.7695L70.3711 28.7109L70.4297 28.6523L70.4883 28.5938L70.5469 28.5352L70.6055 28.4766L70.6641 28.418L70.7227 28.3594L70.7812 28.3008L70.8398 28.2422L70.8984 28.1836L70.957 28.125L71.0156 28.0664L71.0742 28.0078L71.1328 27.9492L71.1914 27.8906L71.25 27.832L71.3086 27.7734L71.3672 27.7148L71.4258 27.6562L71.4844 27.5977L71.543 27.5391L71.6016 27.4805V27.3633L71.6602 27.3047L71.7188 27.2461L71.7773 27.1875L71.8359 27.1289V27.0117L71.8945 26.9531L71.9531 26.8945L72.0117 26.8359L72.0703 26.7773V26.6602L72.1289 26.6016L72.1875 26.543V26.4258V26.3086L72.2461 26.25L72.3047 26.1914V26.0742L72.3633 26.0156L72.4219 25.957V25.8398V25.7227L72.4805 25.6641L72.5391 25.6055V25.4883V25.3711V25.2539V25.1367L72.5977 25.0781L72.6562 25.0195V24.9023V24.7852V24.668V24.5508V24.4336V24.3164V24.1992V24.082V23.9648V23.8477V23.7305L72.5977 23.6719L72.5391 23.6133V23.4961V23.3789V23.2617L72.4805 23.2031L72.4219 23.1445V23.0273V22.9102V22.793L72.3633 22.7344L72.3047 22.6758V22.5586L72.2461 22.5L72.1875 22.4414V22.3242L72.1289 22.2656L72.0703 22.207V22.0898L72.0117 22.0312L71.9531 21.9727V21.8555L71.8945 21.7969L71.8359 21.7383V21.6211L71.7773 21.5625L71.7188 21.5039L71.6602 21.4453L71.6016 21.3867V21.2695L71.543 21.2109L71.4844 21.1523L71.4258 21.0938L71.3672 21.0352L71.3086 20.9766L71.25 20.918L71.1914 20.8594L71.1328 20.8008L71.0742 20.7422L71.0156 20.6836L70.957 20.625L70.8984 20.5664L70.8398 20.5078L70.7812 20.4492L70.7227 20.3906L70.6641 20.332L70.6055 20.2734L70.5469 20.2148L70.4883 20.1562L70.4297 20.0977L70.3711 20.0391L70.3125 19.9805L70.2539 19.9219H70.1367L70.0781 19.8633L70.0195 19.8047L69.9609 19.7461V19.6289L70.0195 19.5703L70.0781 19.5117L70.1367 19.4531H70.2539L70.3125 19.3945L70.3711 19.3359H70.4883L70.5469 19.2773L70.6055 19.2188H70.7227L70.7812 19.1602L70.8398 19.1016H70.957L71.0156 19.043L71.0742 18.9844H71.1914L71.25 18.9258L71.3086 18.8672H71.4258L71.4844 18.8086L71.543 18.75H71.6602L71.7188 18.6914L71.7773 18.6328H71.8945L71.9531 18.5742L72.0117 18.5156H72.1289L72.1875 18.457L72.2461 18.3984H72.3633L72.4219 18.3398L72.4805 18.2812H72.5977L72.6562 18.2227L72.7148 18.1641H72.832L72.8906 18.1055L72.9492 18.0469H73.0664L73.125 17.9883L73.1836 17.9297H73.3008L73.3594 17.8711L73.418 17.8125H73.5352L73.5938 17.7539L73.6523 17.6953H73.7695L73.8281 17.6367L73.8867 17.5781L73.9453 17.5195L74.0039 17.4609H74.1211L74.1797 17.4023L74.2383 17.3438H74.3555L74.4141 17.2852L74.4727 17.2266H74.5898L74.6484 17.168L74.707 17.1094H74.8242L74.8828 17.0508L74.9414 16.9922H75.0586L75.1172 16.9336L75.1758 16.875H75.293L75.3516 16.8164L75.4102 16.7578H75.5273L75.5859 16.6992L75.6445 16.6406L75.7031 16.582L75.7617 16.5234H75.8789L75.9375 16.582L75.9961 16.6406L76.0547 16.6992L76.1133 16.7578L76.1719 16.8164L76.2305 16.875L76.2891 16.9336L76.3477 16.9922L76.4062 17.0508L76.4648 17.1094H76.582L76.6406 17.168L76.6992 17.2266L76.7578 17.2852L76.8164 17.3438L76.875 17.4023L76.9336 17.4609L76.9922 17.5195L77.0508 17.5781L77.1094 17.6367L77.168 17.6953L77.2266 17.7539L77.2852 17.8125L77.3438 17.8711L77.4023 17.9297L77.4609 17.9883L77.5195 18.0469L77.5781 18.1055L77.6367 18.1641L77.6953 18.2227V18.3398L77.7539 18.3984L77.8125 18.457L77.8711 18.5156L77.9297 18.5742L77.9883 18.6328L78.0469 18.6914L78.1055 18.75L78.1641 18.8086L78.2227 18.8672L78.2812 18.9258V19.043L78.3398 19.1016L78.3984 19.1602L78.457 19.2188L78.5156 19.2773L78.5742 19.3359L78.6328 19.3945V19.5117L78.6914 19.5703L78.75 19.6289V19.7461L78.8086 19.8047L78.8672 19.8633L78.9258 19.9219L78.9844 19.9805V20.0977L79.043 20.1562L79.1016 20.2148V20.332L79.1602 20.3906L79.2188 20.4492V20.5664L79.2773 20.625L79.3359 20.6836V20.8008L79.3945 20.8594L79.4531 20.918V21.0352L79.5117 21.0938L79.5703 21.1523V21.2695L79.6289 21.3281L79.6875 21.3867V21.5039V21.6211L79.7461 21.6797L79.8047 21.7383V21.8555V21.9727L79.8633 22.0312L79.9219 22.0898V22.207V22.3242V22.4414L79.9805 22.5L80.0391 22.5586V22.6758V22.793V22.9102V23.0273L80.0977 23.0859L80.1562 23.1445V23.2617V23.3789V23.4961V23.6133V23.7305V23.8477V23.9648V24.082V24.1992V24.3164V24.4336V24.5508V24.668V24.7852V24.9023V25.0195V25.1367V25.2539V25.3711V25.4883V25.6055V25.7227L80.0977 25.7812L80.0391 25.8398V25.957V26.0742V26.1914V26.3086L79.9805 26.3672L79.9219 26.4258V26.543V26.6602V26.7773L79.8633 26.8359L79.8047 26.8945V27.0117V27.1289L79.7461 27.1875L79.6875 27.2461V27.3633L79.6289 27.4219L79.5703 27.4805V27.5977V27.7148L79.5117 27.7734L79.4531 27.832V27.9492L79.3945 28.0078L79.3359 28.0664V28.1836L79.2773 28.2422L79.2188 28.3008V28.418L79.1602 28.4766L79.1016 28.5352V28.6523L79.043 28.7109L78.9844 28.7695L78.9258 28.8281L78.8672 28.8867V29.0039L78.8086 29.0625L78.75 29.1211L78.6914 29.1797L78.6328 29.2383V29.3555L78.5742 29.4141L78.5156 29.4727L78.457 29.5312L78.3984 29.5898V29.707L78.3398 29.7656L78.2812 29.8242L78.2227 29.8828L78.1641 29.9414L78.1055 30L78.0469 30.0586V30.1758L77.9883 30.2344L77.9297 30.293L77.8711 30.3516L77.8125 30.4102L77.7539 30.4688L77.6953 30.5273L77.6367 30.5859L77.5781 30.6445L77.5195 30.7031L77.4609 30.7617L77.4023 30.8203L77.3438 30.8789L77.2852 30.9375L77.2266 30.9961L77.168 31.0547L77.1094 31.1133L77.0508 31.1719L76.9922 31.2305L76.9336 31.2891L76.875 31.3477L76.8164 31.4062L76.7578 31.4648L76.6992 31.5234L76.6406 31.582L76.582 31.6406L76.5234 31.6992L76.4648 31.7578H76.3477L76.2891 31.8164L76.2305 31.875L76.1719 31.9336L76.1133 31.9922L76.0547 32.0508L75.9961 32.1094L75.9375 32.168L75.8789 32.2266L75.8203 32.2852L75.7617 32.3438H75.6445L75.5859 32.4023L75.5273 32.4609L75.4688 32.5195L75.4102 32.5781L75.3516 32.6367L75.293 32.6953H75.1758L75.1172 32.7539L75.0586 32.8125L75 32.8711L74.9414 32.9297H74.8242L74.7656 32.9883L74.707 33.0469L74.6484 33.1055L74.5898 33.1641H74.4727L74.4141 33.2227L74.3555 33.2812L74.2969 33.3398L74.2383 33.3984H74.1211L74.0625 33.457L74.0039 33.5156H73.8867L73.8281 33.5742L73.7695 33.6328H73.6523L73.5938 33.6914L73.5352 33.75H73.418L73.3594 33.8086L73.3008 33.8672H73.1836L73.125 33.9258L73.0664 33.9844H72.9492L72.8906 34.043L72.832 34.1016H72.7148L72.6562 34.1602L72.5977 34.2188H72.4805L72.4219 34.2773L72.3633 34.3359H72.2461L72.1875 34.3945L72.1289 34.4531H72.0117L71.9531 34.5117L71.8945 34.5703H71.7773H71.6602L71.6016 34.6289L71.543 34.6875H71.4258L71.3672 34.7461L71.3086 34.8047H71.1914H71.0742L71.0156 34.8633L70.957 34.9219H70.8398H70.7227L70.6641 34.9805L70.6055 35.0391H70.4883H70.3711L70.3125 35.0977L70.2539 35.1562H70.1367H70.0195L69.9609 35.2148L69.9023 35.2734H69.7852H69.668L69.6094 35.332L69.5508 35.3906H69.4336H69.3164H69.1992L69.1406 35.4492L69.082 35.5078H68.9648H68.8477L68.7891 35.5664L68.7305 35.625H68.6133H68.4961H68.3789H68.2617L68.2031 35.6836L68.1445 35.7422H68.0273H67.9102H67.793L67.7344 35.8008L67.6758 35.8594H67.5586H67.4414H67.3242H67.207L67.1484 35.918L67.0898 35.9766H66.9727H66.8555H66.7383H66.6211L66.5625 36.0352L66.5039 36.0938H66.3867H66.2695H66.1523H66.0352H65.918H65.8008L65.7422 36.1523L65.6836 36.2109H65.5664H65.4492H65.332H65.2148H65.0977H64.9805H64.8633H64.7461L64.6875 36.2695L64.6289 36.3281Z" fill="white"/>
</svg>
